<mxfile host="app.diagrams.net" modified="2024-06-09T15:03:50.538Z" agent="Mozilla/5.0 (Windows NT 10.0; Win64; x64) AppleWebKit/537.36 (KHTML, like Gecko) Chrome/122.0.0.0 YaBrowser/24.4.0.0 Safari/537.36" etag="XbqsY8rsxOfN_iC5UKoS" version="24.5.2" type="device" pages="8">
  <diagram name="Взаим-е ЛА и СА" id="pwe6tWylp4wRwwwGPDkI">
    <mxGraphModel dx="1434" dy="791" grid="1" gridSize="10" guides="1" tooltips="1" connect="1" arrows="1" fold="1" page="1" pageScale="1" pageWidth="827" pageHeight="1169" math="0" shadow="0">
      <root>
        <mxCell id="0" />
        <mxCell id="1" parent="0" />
        <mxCell id="NVh85DnbDr7PdgAWclxD-11" style="rounded=0;orthogonalLoop=1;jettySize=auto;html=1;exitX=0.5;exitY=1;exitDx=0;exitDy=0;entryX=0;entryY=0;entryDx=0;entryDy=0;startArrow=classic;startFill=1;" parent="1" source="NVh85DnbDr7PdgAWclxD-1" target="NVh85DnbDr7PdgAWclxD-10" edge="1">
          <mxGeometry relative="1" as="geometry" />
        </mxCell>
        <mxCell id="NVh85DnbDr7PdgAWclxD-1" value="Лексический анализатор" style="rounded=0;whiteSpace=wrap;html=1;" parent="1" vertex="1">
          <mxGeometry x="160" y="190" width="120" height="60" as="geometry" />
        </mxCell>
        <mxCell id="NVh85DnbDr7PdgAWclxD-3" value="" style="endArrow=classic;html=1;rounded=0;entryX=0;entryY=0.5;entryDx=0;entryDy=0;" parent="1" target="NVh85DnbDr7PdgAWclxD-1" edge="1">
          <mxGeometry width="50" height="50" relative="1" as="geometry">
            <mxPoint x="60" y="220" as="sourcePoint" />
            <mxPoint x="110" y="190" as="targetPoint" />
          </mxGeometry>
        </mxCell>
        <mxCell id="NVh85DnbDr7PdgAWclxD-4" value="Исходный код" style="text;html=1;align=center;verticalAlign=middle;resizable=0;points=[];autosize=1;strokeColor=none;fillColor=none;" parent="1" vertex="1">
          <mxGeometry x="50" y="190" width="100" height="30" as="geometry" />
        </mxCell>
        <mxCell id="NVh85DnbDr7PdgAWclxD-5" value="Синтаксический анализатор" style="rounded=0;whiteSpace=wrap;html=1;" parent="1" vertex="1">
          <mxGeometry x="440" y="190" width="120" height="60" as="geometry" />
        </mxCell>
        <mxCell id="NVh85DnbDr7PdgAWclxD-6" value="" style="endArrow=classic;html=1;rounded=0;exitX=1;exitY=0.25;exitDx=0;exitDy=0;entryX=0;entryY=0.25;entryDx=0;entryDy=0;" parent="1" source="NVh85DnbDr7PdgAWclxD-1" target="NVh85DnbDr7PdgAWclxD-5" edge="1">
          <mxGeometry width="50" height="50" relative="1" as="geometry">
            <mxPoint x="350" y="280" as="sourcePoint" />
            <mxPoint x="400" y="230" as="targetPoint" />
          </mxGeometry>
        </mxCell>
        <mxCell id="NVh85DnbDr7PdgAWclxD-7" value="Токен" style="text;html=1;align=center;verticalAlign=middle;resizable=0;points=[];autosize=1;strokeColor=none;fillColor=none;" parent="1" vertex="1">
          <mxGeometry x="336" y="176" width="60" height="30" as="geometry" />
        </mxCell>
        <mxCell id="NVh85DnbDr7PdgAWclxD-8" value="" style="endArrow=classic;html=1;rounded=0;exitX=0;exitY=0.75;exitDx=0;exitDy=0;entryX=1;entryY=0.75;entryDx=0;entryDy=0;" parent="1" source="NVh85DnbDr7PdgAWclxD-5" target="NVh85DnbDr7PdgAWclxD-1" edge="1">
          <mxGeometry width="50" height="50" relative="1" as="geometry">
            <mxPoint x="410" y="310" as="sourcePoint" />
            <mxPoint x="460" y="260" as="targetPoint" />
          </mxGeometry>
        </mxCell>
        <mxCell id="NVh85DnbDr7PdgAWclxD-9" value="Запрос токена" style="text;html=1;align=center;verticalAlign=middle;resizable=0;points=[];autosize=1;strokeColor=none;fillColor=none;" parent="1" vertex="1">
          <mxGeometry x="316" y="238" width="100" height="30" as="geometry" />
        </mxCell>
        <mxCell id="NVh85DnbDr7PdgAWclxD-10" value="Таблица символов" style="rounded=0;whiteSpace=wrap;html=1;" parent="1" vertex="1">
          <mxGeometry x="296" y="320" width="120" height="60" as="geometry" />
        </mxCell>
        <mxCell id="NVh85DnbDr7PdgAWclxD-12" style="rounded=0;orthogonalLoop=1;jettySize=auto;html=1;exitX=1;exitY=0;exitDx=0;exitDy=0;entryX=0.5;entryY=1;entryDx=0;entryDy=0;startArrow=classic;startFill=1;" parent="1" source="NVh85DnbDr7PdgAWclxD-10" target="NVh85DnbDr7PdgAWclxD-5" edge="1">
          <mxGeometry relative="1" as="geometry">
            <mxPoint x="500" y="310" as="sourcePoint" />
            <mxPoint x="576" y="390" as="targetPoint" />
          </mxGeometry>
        </mxCell>
        <mxCell id="NVh85DnbDr7PdgAWclxD-13" value="" style="endArrow=classic;html=1;rounded=0;exitX=1;exitY=0.5;exitDx=0;exitDy=0;dashed=1;" parent="1" source="NVh85DnbDr7PdgAWclxD-5" edge="1">
          <mxGeometry width="50" height="50" relative="1" as="geometry">
            <mxPoint x="590" y="220" as="sourcePoint" />
            <mxPoint x="640" y="220" as="targetPoint" />
          </mxGeometry>
        </mxCell>
      </root>
    </mxGraphModel>
  </diagram>
  <diagram id="cxw-sDVD9bresyM45R93" name="Диаг. переходов состояний">
    <mxGraphModel dx="1434" dy="780" grid="1" gridSize="10" guides="1" tooltips="1" connect="1" arrows="1" fold="1" page="1" pageScale="1" pageWidth="827" pageHeight="1169" math="0" shadow="0">
      <root>
        <mxCell id="0" />
        <mxCell id="1" parent="0" />
        <mxCell id="nslEOduzyJcP9oeF_xEr-5" style="edgeStyle=orthogonalEdgeStyle;rounded=0;orthogonalLoop=1;jettySize=auto;html=1;exitX=1;exitY=0.5;exitDx=0;exitDy=0;entryX=0;entryY=0.5;entryDx=0;entryDy=0;" parent="1" source="nslEOduzyJcP9oeF_xEr-1" target="nslEOduzyJcP9oeF_xEr-4" edge="1">
          <mxGeometry relative="1" as="geometry" />
        </mxCell>
        <mxCell id="nslEOduzyJcP9oeF_xEr-152" style="edgeStyle=orthogonalEdgeStyle;rounded=0;orthogonalLoop=1;jettySize=auto;html=1;exitX=0.5;exitY=1;exitDx=0;exitDy=0;entryX=0;entryY=0.5;entryDx=0;entryDy=0;jumpStyle=none;" parent="1" source="nslEOduzyJcP9oeF_xEr-1" target="nslEOduzyJcP9oeF_xEr-148" edge="1">
          <mxGeometry relative="1" as="geometry" />
        </mxCell>
        <mxCell id="nslEOduzyJcP9oeF_xEr-155" style="edgeStyle=orthogonalEdgeStyle;rounded=0;orthogonalLoop=1;jettySize=auto;html=1;exitX=0.5;exitY=0;exitDx=0;exitDy=0;entryX=0;entryY=0.5;entryDx=0;entryDy=0;" parent="1" source="nslEOduzyJcP9oeF_xEr-1" target="nslEOduzyJcP9oeF_xEr-258" edge="1">
          <mxGeometry relative="1" as="geometry">
            <mxPoint x="644.9999999999918" y="830" as="targetPoint" />
            <Array as="points">
              <mxPoint x="100" y="20" />
              <mxPoint x="510" y="20" />
              <mxPoint x="510" y="750" />
            </Array>
          </mxGeometry>
        </mxCell>
        <mxCell id="nslEOduzyJcP9oeF_xEr-1" value="0" style="ellipse;whiteSpace=wrap;html=1;aspect=fixed;" parent="1" vertex="1">
          <mxGeometry x="80" y="40" width="40" height="40" as="geometry" />
        </mxCell>
        <mxCell id="nslEOduzyJcP9oeF_xEr-2" value="" style="endArrow=classic;html=1;rounded=0;entryX=0;entryY=0.5;entryDx=0;entryDy=0;" parent="1" target="nslEOduzyJcP9oeF_xEr-1" edge="1">
          <mxGeometry width="50" height="50" relative="1" as="geometry">
            <mxPoint x="40" y="60" as="sourcePoint" />
            <mxPoint x="60" y="20" as="targetPoint" />
          </mxGeometry>
        </mxCell>
        <mxCell id="nslEOduzyJcP9oeF_xEr-3" value="start" style="text;html=1;align=center;verticalAlign=middle;resizable=0;points=[];autosize=1;strokeColor=none;fillColor=none;" parent="1" vertex="1">
          <mxGeometry x="25" y="28" width="50" height="30" as="geometry" />
        </mxCell>
        <mxCell id="nslEOduzyJcP9oeF_xEr-11" style="edgeStyle=orthogonalEdgeStyle;rounded=0;orthogonalLoop=1;jettySize=auto;html=1;exitX=1;exitY=0.5;exitDx=0;exitDy=0;entryX=0;entryY=0.5;entryDx=0;entryDy=0;" parent="1" source="nslEOduzyJcP9oeF_xEr-4" target="nslEOduzyJcP9oeF_xEr-8" edge="1">
          <mxGeometry relative="1" as="geometry" />
        </mxCell>
        <mxCell id="nslEOduzyJcP9oeF_xEr-24" style="edgeStyle=orthogonalEdgeStyle;rounded=0;orthogonalLoop=1;jettySize=auto;html=1;exitX=0.5;exitY=1;exitDx=0;exitDy=0;entryX=0;entryY=0.5;entryDx=0;entryDy=0;" parent="1" source="nslEOduzyJcP9oeF_xEr-4" target="nslEOduzyJcP9oeF_xEr-21" edge="1">
          <mxGeometry relative="1" as="geometry" />
        </mxCell>
        <mxCell id="nslEOduzyJcP9oeF_xEr-4" value="1" style="ellipse;whiteSpace=wrap;html=1;aspect=fixed;" parent="1" vertex="1">
          <mxGeometry x="200" y="40" width="40" height="40" as="geometry" />
        </mxCell>
        <mxCell id="nslEOduzyJcP9oeF_xEr-6" value="=" style="text;html=1;align=center;verticalAlign=middle;resizable=0;points=[];autosize=1;strokeColor=none;fillColor=none;fontStyle=0;fontSize=18;" parent="1" vertex="1">
          <mxGeometry x="140" y="23" width="30" height="40" as="geometry" />
        </mxCell>
        <mxCell id="nslEOduzyJcP9oeF_xEr-10" value="2" style="group" parent="1" vertex="1" connectable="0">
          <mxGeometry x="320" y="40" width="40" height="40" as="geometry" />
        </mxCell>
        <mxCell id="nslEOduzyJcP9oeF_xEr-8" value="" style="ellipse;whiteSpace=wrap;html=1;aspect=fixed;" parent="nslEOduzyJcP9oeF_xEr-10" vertex="1">
          <mxGeometry width="40" height="40" as="geometry" />
        </mxCell>
        <mxCell id="nslEOduzyJcP9oeF_xEr-9" value="2" style="ellipse;whiteSpace=wrap;html=1;aspect=fixed;" parent="nslEOduzyJcP9oeF_xEr-10" vertex="1">
          <mxGeometry x="6.5" y="6.5" width="27" height="27" as="geometry" />
        </mxCell>
        <mxCell id="nslEOduzyJcP9oeF_xEr-12" value="=" style="text;html=1;align=center;verticalAlign=middle;resizable=0;points=[];autosize=1;strokeColor=none;fillColor=none;fontStyle=0;fontSize=18;" parent="1" vertex="1">
          <mxGeometry x="250" y="28" width="30" height="40" as="geometry" />
        </mxCell>
        <mxCell id="nslEOduzyJcP9oeF_xEr-13" value="(EQ, &quot;==&quot;)" style="text;html=1;align=center;verticalAlign=middle;resizable=0;points=[];autosize=1;strokeColor=none;fillColor=none;" parent="1" vertex="1">
          <mxGeometry x="363" y="45" width="80" height="30" as="geometry" />
        </mxCell>
        <mxCell id="nslEOduzyJcP9oeF_xEr-20" value="2" style="group" parent="1" vertex="1" connectable="0">
          <mxGeometry x="320" y="100" width="40" height="40" as="geometry" />
        </mxCell>
        <mxCell id="nslEOduzyJcP9oeF_xEr-21" value="" style="ellipse;whiteSpace=wrap;html=1;aspect=fixed;" parent="nslEOduzyJcP9oeF_xEr-20" vertex="1">
          <mxGeometry width="40" height="40" as="geometry" />
        </mxCell>
        <mxCell id="nslEOduzyJcP9oeF_xEr-22" value="3" style="ellipse;whiteSpace=wrap;html=1;aspect=fixed;" parent="nslEOduzyJcP9oeF_xEr-20" vertex="1">
          <mxGeometry x="6.5" y="6.5" width="27" height="27" as="geometry" />
        </mxCell>
        <mxCell id="nslEOduzyJcP9oeF_xEr-23" value="(ASSIGN, &quot;=&quot;)" style="text;html=1;align=center;verticalAlign=middle;resizable=0;points=[];autosize=1;strokeColor=none;fillColor=none;" parent="1" vertex="1">
          <mxGeometry x="363" y="105" width="100" height="30" as="geometry" />
        </mxCell>
        <mxCell id="nslEOduzyJcP9oeF_xEr-25" value="Other" style="text;html=1;align=center;verticalAlign=middle;resizable=0;points=[];autosize=1;strokeColor=none;fillColor=none;" parent="1" vertex="1">
          <mxGeometry x="220" y="88" width="50" height="30" as="geometry" />
        </mxCell>
        <mxCell id="nslEOduzyJcP9oeF_xEr-28" value="+" style="text;html=1;align=center;verticalAlign=middle;resizable=0;points=[];autosize=1;strokeColor=none;fillColor=none;fontStyle=0;fontSize=18;" parent="1" vertex="1">
          <mxGeometry x="140" y="140" width="30" height="40" as="geometry" />
        </mxCell>
        <mxCell id="nslEOduzyJcP9oeF_xEr-29" value="2" style="group" parent="1" vertex="1" connectable="0">
          <mxGeometry x="320" y="150" width="40" height="40" as="geometry" />
        </mxCell>
        <mxCell id="nslEOduzyJcP9oeF_xEr-30" value="" style="ellipse;whiteSpace=wrap;html=1;aspect=fixed;" parent="nslEOduzyJcP9oeF_xEr-29" vertex="1">
          <mxGeometry width="40" height="40" as="geometry" />
        </mxCell>
        <mxCell id="nslEOduzyJcP9oeF_xEr-31" value="4" style="ellipse;whiteSpace=wrap;html=1;aspect=fixed;" parent="nslEOduzyJcP9oeF_xEr-29" vertex="1">
          <mxGeometry x="6.5" y="6.5" width="27" height="27" as="geometry" />
        </mxCell>
        <mxCell id="nslEOduzyJcP9oeF_xEr-32" value="(PLUS, &quot;+&quot;)" style="text;html=1;align=center;verticalAlign=middle;resizable=0;points=[];autosize=1;strokeColor=none;fillColor=none;" parent="1" vertex="1">
          <mxGeometry x="363" y="155" width="90" height="30" as="geometry" />
        </mxCell>
        <mxCell id="nslEOduzyJcP9oeF_xEr-34" value="2" style="group" parent="1" vertex="1" connectable="0">
          <mxGeometry x="320" y="200" width="40" height="40" as="geometry" />
        </mxCell>
        <mxCell id="nslEOduzyJcP9oeF_xEr-35" value="" style="ellipse;whiteSpace=wrap;html=1;aspect=fixed;" parent="nslEOduzyJcP9oeF_xEr-34" vertex="1">
          <mxGeometry width="40" height="40" as="geometry" />
        </mxCell>
        <mxCell id="nslEOduzyJcP9oeF_xEr-36" value="5" style="ellipse;whiteSpace=wrap;html=1;aspect=fixed;" parent="nslEOduzyJcP9oeF_xEr-34" vertex="1">
          <mxGeometry x="6.5" y="6.5" width="27" height="27" as="geometry" />
        </mxCell>
        <mxCell id="nslEOduzyJcP9oeF_xEr-37" value="(MINUS, &quot;-&quot;)" style="text;html=1;align=center;verticalAlign=middle;resizable=0;points=[];autosize=1;strokeColor=none;fillColor=none;" parent="1" vertex="1">
          <mxGeometry x="363" y="205" width="90" height="30" as="geometry" />
        </mxCell>
        <mxCell id="nslEOduzyJcP9oeF_xEr-39" value="-" style="text;html=1;align=center;verticalAlign=middle;resizable=0;points=[];autosize=1;strokeColor=none;fillColor=none;fontStyle=0;fontSize=18;" parent="1" vertex="1">
          <mxGeometry x="140" y="185" width="30" height="40" as="geometry" />
        </mxCell>
        <mxCell id="nslEOduzyJcP9oeF_xEr-40" value="2" style="group" parent="1" vertex="1" connectable="0">
          <mxGeometry x="320" y="250" width="40" height="40" as="geometry" />
        </mxCell>
        <mxCell id="nslEOduzyJcP9oeF_xEr-41" value="" style="ellipse;whiteSpace=wrap;html=1;aspect=fixed;" parent="nslEOduzyJcP9oeF_xEr-40" vertex="1">
          <mxGeometry width="40" height="40" as="geometry" />
        </mxCell>
        <mxCell id="nslEOduzyJcP9oeF_xEr-42" value="6" style="ellipse;whiteSpace=wrap;html=1;aspect=fixed;" parent="nslEOduzyJcP9oeF_xEr-40" vertex="1">
          <mxGeometry x="6.5" y="6.5" width="27" height="27" as="geometry" />
        </mxCell>
        <mxCell id="nslEOduzyJcP9oeF_xEr-43" value="(STAR, &quot;*&quot;)" style="text;html=1;align=center;verticalAlign=middle;resizable=0;points=[];autosize=1;strokeColor=none;fillColor=none;" parent="1" vertex="1">
          <mxGeometry x="363" y="255" width="80" height="30" as="geometry" />
        </mxCell>
        <mxCell id="nslEOduzyJcP9oeF_xEr-44" value="2" style="group" parent="1" vertex="1" connectable="0">
          <mxGeometry x="320" y="300" width="40" height="40" as="geometry" />
        </mxCell>
        <mxCell id="nslEOduzyJcP9oeF_xEr-45" value="" style="ellipse;whiteSpace=wrap;html=1;aspect=fixed;" parent="nslEOduzyJcP9oeF_xEr-44" vertex="1">
          <mxGeometry width="40" height="40" as="geometry" />
        </mxCell>
        <mxCell id="nslEOduzyJcP9oeF_xEr-46" value="7" style="ellipse;whiteSpace=wrap;html=1;aspect=fixed;" parent="nslEOduzyJcP9oeF_xEr-44" vertex="1">
          <mxGeometry x="6.5" y="6.5" width="27" height="27" as="geometry" />
        </mxCell>
        <mxCell id="nslEOduzyJcP9oeF_xEr-47" value="(SLASH, &quot;/&quot;)" style="text;html=1;align=center;verticalAlign=middle;resizable=0;points=[];autosize=1;strokeColor=none;fillColor=none;" parent="1" vertex="1">
          <mxGeometry x="363" y="305" width="90" height="30" as="geometry" />
        </mxCell>
        <mxCell id="nslEOduzyJcP9oeF_xEr-50" value="*" style="text;html=1;align=center;verticalAlign=middle;resizable=0;points=[];autosize=1;strokeColor=none;fillColor=none;fontStyle=0;fontSize=18;" parent="1" vertex="1">
          <mxGeometry x="140" y="235" width="30" height="40" as="geometry" />
        </mxCell>
        <mxCell id="nslEOduzyJcP9oeF_xEr-51" value="/" style="text;html=1;align=center;verticalAlign=middle;resizable=0;points=[];autosize=1;strokeColor=none;fillColor=none;fontStyle=0;fontSize=18;" parent="1" vertex="1">
          <mxGeometry x="140" y="285" width="30" height="40" as="geometry" />
        </mxCell>
        <mxCell id="nslEOduzyJcP9oeF_xEr-58" style="edgeStyle=orthogonalEdgeStyle;rounded=0;orthogonalLoop=1;jettySize=auto;html=1;exitX=1;exitY=0.5;exitDx=0;exitDy=0;entryX=0;entryY=0.5;entryDx=0;entryDy=0;" parent="1" source="nslEOduzyJcP9oeF_xEr-52" target="nslEOduzyJcP9oeF_xEr-55" edge="1">
          <mxGeometry relative="1" as="geometry" />
        </mxCell>
        <mxCell id="nslEOduzyJcP9oeF_xEr-63" style="edgeStyle=orthogonalEdgeStyle;rounded=0;orthogonalLoop=1;jettySize=auto;html=1;exitX=0.5;exitY=1;exitDx=0;exitDy=0;entryX=0;entryY=0.5;entryDx=0;entryDy=0;" parent="1" source="nslEOduzyJcP9oeF_xEr-52" target="nslEOduzyJcP9oeF_xEr-60" edge="1">
          <mxGeometry relative="1" as="geometry" />
        </mxCell>
        <mxCell id="nslEOduzyJcP9oeF_xEr-52" value="9" style="ellipse;whiteSpace=wrap;html=1;aspect=fixed;" parent="1" vertex="1">
          <mxGeometry x="200" y="415" width="40" height="40" as="geometry" />
        </mxCell>
        <mxCell id="nslEOduzyJcP9oeF_xEr-54" value="2" style="group" parent="1" vertex="1" connectable="0">
          <mxGeometry x="320" y="415" width="40" height="40" as="geometry" />
        </mxCell>
        <mxCell id="nslEOduzyJcP9oeF_xEr-55" value="" style="ellipse;whiteSpace=wrap;html=1;aspect=fixed;" parent="nslEOduzyJcP9oeF_xEr-54" vertex="1">
          <mxGeometry width="40" height="40" as="geometry" />
        </mxCell>
        <mxCell id="nslEOduzyJcP9oeF_xEr-56" value="10" style="ellipse;whiteSpace=wrap;html=1;aspect=fixed;" parent="nslEOduzyJcP9oeF_xEr-54" vertex="1">
          <mxGeometry x="6.5" y="6.5" width="27" height="27" as="geometry" />
        </mxCell>
        <mxCell id="nslEOduzyJcP9oeF_xEr-57" value="(NEQ, &quot;!=&quot;)" style="text;html=1;align=center;verticalAlign=middle;resizable=0;points=[];autosize=1;strokeColor=none;fillColor=none;" parent="1" vertex="1">
          <mxGeometry x="363" y="420" width="80" height="30" as="geometry" />
        </mxCell>
        <mxCell id="nslEOduzyJcP9oeF_xEr-59" value="2" style="group" parent="1" vertex="1" connectable="0">
          <mxGeometry x="320" y="465" width="40" height="40" as="geometry" />
        </mxCell>
        <mxCell id="nslEOduzyJcP9oeF_xEr-60" value="" style="ellipse;whiteSpace=wrap;html=1;aspect=fixed;" parent="nslEOduzyJcP9oeF_xEr-59" vertex="1">
          <mxGeometry width="40" height="40" as="geometry" />
        </mxCell>
        <mxCell id="nslEOduzyJcP9oeF_xEr-61" value="11" style="ellipse;whiteSpace=wrap;html=1;aspect=fixed;" parent="nslEOduzyJcP9oeF_xEr-59" vertex="1">
          <mxGeometry x="6.5" y="6.5" width="27" height="27" as="geometry" />
        </mxCell>
        <mxCell id="nslEOduzyJcP9oeF_xEr-62" value="(EXCLAMINATION, &quot;!&quot;)" style="text;html=1;align=center;verticalAlign=middle;resizable=0;points=[];autosize=1;strokeColor=none;fillColor=none;" parent="1" vertex="1">
          <mxGeometry x="358" y="470" width="150" height="30" as="geometry" />
        </mxCell>
        <mxCell id="nslEOduzyJcP9oeF_xEr-64" value="Other" style="text;html=1;align=center;verticalAlign=middle;resizable=0;points=[];autosize=1;strokeColor=none;fillColor=none;" parent="1" vertex="1">
          <mxGeometry x="230" y="455" width="50" height="30" as="geometry" />
        </mxCell>
        <mxCell id="nslEOduzyJcP9oeF_xEr-65" value="!" style="text;html=1;align=center;verticalAlign=middle;resizable=0;points=[];autosize=1;strokeColor=none;fillColor=none;fontStyle=0;fontSize=18;" parent="1" vertex="1">
          <mxGeometry x="140" y="395" width="30" height="40" as="geometry" />
        </mxCell>
        <mxCell id="nslEOduzyJcP9oeF_xEr-66" value="=" style="text;html=1;align=center;verticalAlign=middle;resizable=0;points=[];autosize=1;strokeColor=none;fillColor=none;fontStyle=0;fontSize=18;" parent="1" vertex="1">
          <mxGeometry x="260" y="395" width="30" height="40" as="geometry" />
        </mxCell>
        <mxCell id="nslEOduzyJcP9oeF_xEr-71" value="" style="group" parent="1" vertex="1" connectable="0">
          <mxGeometry x="320" y="360" width="40" height="40" as="geometry" />
        </mxCell>
        <mxCell id="nslEOduzyJcP9oeF_xEr-72" value="" style="ellipse;whiteSpace=wrap;html=1;aspect=fixed;" parent="nslEOduzyJcP9oeF_xEr-71" vertex="1">
          <mxGeometry width="40" height="40" as="geometry" />
        </mxCell>
        <mxCell id="nslEOduzyJcP9oeF_xEr-73" value="8" style="ellipse;whiteSpace=wrap;html=1;aspect=fixed;" parent="nslEOduzyJcP9oeF_xEr-71" vertex="1">
          <mxGeometry x="6.5" y="6.5" width="27" height="27" as="geometry" />
        </mxCell>
        <mxCell id="nslEOduzyJcP9oeF_xEr-74" value="(PERCENT, &quot;%&quot;)" style="text;html=1;align=center;verticalAlign=middle;resizable=0;points=[];autosize=1;strokeColor=none;fillColor=none;" parent="1" vertex="1">
          <mxGeometry x="363" y="365" width="110" height="30" as="geometry" />
        </mxCell>
        <mxCell id="nslEOduzyJcP9oeF_xEr-76" value="%" style="text;html=1;align=center;verticalAlign=middle;resizable=0;points=[];autosize=1;strokeColor=none;fillColor=none;fontStyle=0;fontSize=18;" parent="1" vertex="1">
          <mxGeometry x="135" y="340" width="40" height="40" as="geometry" />
        </mxCell>
        <mxCell id="nslEOduzyJcP9oeF_xEr-77" style="edgeStyle=orthogonalEdgeStyle;rounded=0;orthogonalLoop=1;jettySize=auto;html=1;exitX=1;exitY=0.5;exitDx=0;exitDy=0;entryX=0;entryY=0.5;entryDx=0;entryDy=0;" parent="1" source="nslEOduzyJcP9oeF_xEr-79" target="nslEOduzyJcP9oeF_xEr-81" edge="1">
          <mxGeometry relative="1" as="geometry" />
        </mxCell>
        <mxCell id="nslEOduzyJcP9oeF_xEr-78" style="edgeStyle=orthogonalEdgeStyle;rounded=0;orthogonalLoop=1;jettySize=auto;html=1;exitX=0.5;exitY=1;exitDx=0;exitDy=0;entryX=0;entryY=0.5;entryDx=0;entryDy=0;" parent="1" source="nslEOduzyJcP9oeF_xEr-79" target="nslEOduzyJcP9oeF_xEr-85" edge="1">
          <mxGeometry relative="1" as="geometry" />
        </mxCell>
        <mxCell id="nslEOduzyJcP9oeF_xEr-79" value="12" style="ellipse;whiteSpace=wrap;html=1;aspect=fixed;" parent="1" vertex="1">
          <mxGeometry x="200" y="520" width="40" height="40" as="geometry" />
        </mxCell>
        <mxCell id="nslEOduzyJcP9oeF_xEr-80" value="2" style="group" parent="1" vertex="1" connectable="0">
          <mxGeometry x="320" y="520" width="40" height="40" as="geometry" />
        </mxCell>
        <mxCell id="nslEOduzyJcP9oeF_xEr-81" value="" style="ellipse;whiteSpace=wrap;html=1;aspect=fixed;" parent="nslEOduzyJcP9oeF_xEr-80" vertex="1">
          <mxGeometry width="40" height="40" as="geometry" />
        </mxCell>
        <mxCell id="nslEOduzyJcP9oeF_xEr-82" value="13" style="ellipse;whiteSpace=wrap;html=1;aspect=fixed;" parent="nslEOduzyJcP9oeF_xEr-80" vertex="1">
          <mxGeometry x="6.5" y="6.5" width="27" height="27" as="geometry" />
        </mxCell>
        <mxCell id="nslEOduzyJcP9oeF_xEr-83" value="(LEQ, &quot;&amp;lt;=&quot;)" style="text;html=1;align=center;verticalAlign=middle;resizable=0;points=[];autosize=1;strokeColor=none;fillColor=none;" parent="1" vertex="1">
          <mxGeometry x="363" y="525" width="80" height="30" as="geometry" />
        </mxCell>
        <mxCell id="nslEOduzyJcP9oeF_xEr-84" value="2" style="group" parent="1" vertex="1" connectable="0">
          <mxGeometry x="320" y="570" width="40" height="40" as="geometry" />
        </mxCell>
        <mxCell id="nslEOduzyJcP9oeF_xEr-85" value="" style="ellipse;whiteSpace=wrap;html=1;aspect=fixed;" parent="nslEOduzyJcP9oeF_xEr-84" vertex="1">
          <mxGeometry width="40" height="40" as="geometry" />
        </mxCell>
        <mxCell id="nslEOduzyJcP9oeF_xEr-86" value="14" style="ellipse;whiteSpace=wrap;html=1;aspect=fixed;" parent="nslEOduzyJcP9oeF_xEr-84" vertex="1">
          <mxGeometry x="6.5" y="6.5" width="27" height="27" as="geometry" />
        </mxCell>
        <mxCell id="nslEOduzyJcP9oeF_xEr-87" value="(LT, &quot;&amp;lt;&quot;)" style="text;html=1;align=center;verticalAlign=middle;resizable=0;points=[];autosize=1;strokeColor=none;fillColor=none;" parent="1" vertex="1">
          <mxGeometry x="363" y="575" width="70" height="30" as="geometry" />
        </mxCell>
        <mxCell id="nslEOduzyJcP9oeF_xEr-88" value="Other" style="text;html=1;align=center;verticalAlign=middle;resizable=0;points=[];autosize=1;strokeColor=none;fillColor=none;" parent="1" vertex="1">
          <mxGeometry x="230" y="560" width="50" height="30" as="geometry" />
        </mxCell>
        <mxCell id="nslEOduzyJcP9oeF_xEr-90" value="&amp;lt;" style="text;html=1;align=center;verticalAlign=middle;resizable=0;points=[];autosize=1;strokeColor=none;fillColor=none;fontStyle=0;fontSize=18;" parent="1" vertex="1">
          <mxGeometry x="135" y="505" width="30" height="40" as="geometry" />
        </mxCell>
        <mxCell id="nslEOduzyJcP9oeF_xEr-91" value="=" style="text;html=1;align=center;verticalAlign=middle;resizable=0;points=[];autosize=1;strokeColor=none;fillColor=none;fontStyle=0;fontSize=18;" parent="1" vertex="1">
          <mxGeometry x="260" y="500" width="30" height="40" as="geometry" />
        </mxCell>
        <mxCell id="nslEOduzyJcP9oeF_xEr-92" style="edgeStyle=orthogonalEdgeStyle;rounded=0;orthogonalLoop=1;jettySize=auto;html=1;exitX=1;exitY=0.5;exitDx=0;exitDy=0;entryX=0;entryY=0.5;entryDx=0;entryDy=0;" parent="1" source="nslEOduzyJcP9oeF_xEr-94" target="nslEOduzyJcP9oeF_xEr-96" edge="1">
          <mxGeometry relative="1" as="geometry" />
        </mxCell>
        <mxCell id="nslEOduzyJcP9oeF_xEr-93" style="edgeStyle=orthogonalEdgeStyle;rounded=0;orthogonalLoop=1;jettySize=auto;html=1;exitX=0.5;exitY=1;exitDx=0;exitDy=0;entryX=0;entryY=0.5;entryDx=0;entryDy=0;" parent="1" source="nslEOduzyJcP9oeF_xEr-94" target="nslEOduzyJcP9oeF_xEr-100" edge="1">
          <mxGeometry relative="1" as="geometry" />
        </mxCell>
        <mxCell id="nslEOduzyJcP9oeF_xEr-94" value="15" style="ellipse;whiteSpace=wrap;html=1;aspect=fixed;" parent="1" vertex="1">
          <mxGeometry x="200" y="630" width="40" height="40" as="geometry" />
        </mxCell>
        <mxCell id="nslEOduzyJcP9oeF_xEr-95" value="2" style="group" parent="1" vertex="1" connectable="0">
          <mxGeometry x="320" y="630" width="40" height="40" as="geometry" />
        </mxCell>
        <mxCell id="nslEOduzyJcP9oeF_xEr-96" value="" style="ellipse;whiteSpace=wrap;html=1;aspect=fixed;" parent="nslEOduzyJcP9oeF_xEr-95" vertex="1">
          <mxGeometry width="40" height="40" as="geometry" />
        </mxCell>
        <mxCell id="nslEOduzyJcP9oeF_xEr-97" value="16" style="ellipse;whiteSpace=wrap;html=1;aspect=fixed;" parent="nslEOduzyJcP9oeF_xEr-95" vertex="1">
          <mxGeometry x="6.5" y="6.5" width="27" height="27" as="geometry" />
        </mxCell>
        <mxCell id="nslEOduzyJcP9oeF_xEr-98" value="(GEQ, &quot;&amp;gt;=&quot;)" style="text;html=1;align=center;verticalAlign=middle;resizable=0;points=[];autosize=1;strokeColor=none;fillColor=none;" parent="1" vertex="1">
          <mxGeometry x="358" y="635" width="90" height="30" as="geometry" />
        </mxCell>
        <mxCell id="nslEOduzyJcP9oeF_xEr-99" value="2" style="group" parent="1" vertex="1" connectable="0">
          <mxGeometry x="320" y="680" width="40" height="40" as="geometry" />
        </mxCell>
        <mxCell id="nslEOduzyJcP9oeF_xEr-100" value="" style="ellipse;whiteSpace=wrap;html=1;aspect=fixed;" parent="nslEOduzyJcP9oeF_xEr-99" vertex="1">
          <mxGeometry width="40" height="40" as="geometry" />
        </mxCell>
        <mxCell id="nslEOduzyJcP9oeF_xEr-101" value="17" style="ellipse;whiteSpace=wrap;html=1;aspect=fixed;" parent="nslEOduzyJcP9oeF_xEr-99" vertex="1">
          <mxGeometry x="6.5" y="6.5" width="27" height="27" as="geometry" />
        </mxCell>
        <mxCell id="nslEOduzyJcP9oeF_xEr-102" value="(GT, &quot;&amp;gt;&quot;)" style="text;html=1;align=center;verticalAlign=middle;resizable=0;points=[];autosize=1;strokeColor=none;fillColor=none;" parent="1" vertex="1">
          <mxGeometry x="363" y="685" width="70" height="30" as="geometry" />
        </mxCell>
        <mxCell id="nslEOduzyJcP9oeF_xEr-103" value="Other" style="text;html=1;align=center;verticalAlign=middle;resizable=0;points=[];autosize=1;strokeColor=none;fillColor=none;" parent="1" vertex="1">
          <mxGeometry x="230" y="670" width="50" height="30" as="geometry" />
        </mxCell>
        <mxCell id="nslEOduzyJcP9oeF_xEr-104" value="&amp;gt;" style="text;html=1;align=center;verticalAlign=middle;resizable=0;points=[];autosize=1;strokeColor=none;fillColor=none;fontStyle=0;fontSize=18;" parent="1" vertex="1">
          <mxGeometry x="135" y="615" width="30" height="40" as="geometry" />
        </mxCell>
        <mxCell id="nslEOduzyJcP9oeF_xEr-105" value="=" style="text;html=1;align=center;verticalAlign=middle;resizable=0;points=[];autosize=1;strokeColor=none;fillColor=none;fontStyle=0;fontSize=18;" parent="1" vertex="1">
          <mxGeometry x="260" y="610" width="30" height="40" as="geometry" />
        </mxCell>
        <mxCell id="nslEOduzyJcP9oeF_xEr-107" value="2" style="group" parent="1" vertex="1" connectable="0">
          <mxGeometry x="320" y="735" width="40" height="40" as="geometry" />
        </mxCell>
        <mxCell id="nslEOduzyJcP9oeF_xEr-108" value="" style="ellipse;whiteSpace=wrap;html=1;aspect=fixed;" parent="nslEOduzyJcP9oeF_xEr-107" vertex="1">
          <mxGeometry width="40" height="40" as="geometry" />
        </mxCell>
        <mxCell id="nslEOduzyJcP9oeF_xEr-109" value="18" style="ellipse;whiteSpace=wrap;html=1;aspect=fixed;" parent="nslEOduzyJcP9oeF_xEr-107" vertex="1">
          <mxGeometry x="6.5" y="6.5" width="27" height="27" as="geometry" />
        </mxCell>
        <mxCell id="nslEOduzyJcP9oeF_xEr-110" value="(COMMA, &quot;,&quot;)" style="text;html=1;align=center;verticalAlign=middle;resizable=0;points=[];autosize=1;strokeColor=none;fillColor=none;" parent="1" vertex="1">
          <mxGeometry x="363" y="740" width="100" height="30" as="geometry" />
        </mxCell>
        <mxCell id="nslEOduzyJcP9oeF_xEr-111" value="," style="text;html=1;align=center;verticalAlign=middle;resizable=0;points=[];autosize=1;strokeColor=none;fillColor=none;fontStyle=0;fontSize=18;" parent="1" vertex="1">
          <mxGeometry x="145" y="715" width="30" height="40" as="geometry" />
        </mxCell>
        <mxCell id="nslEOduzyJcP9oeF_xEr-113" value="2" style="group" parent="1" vertex="1" connectable="0">
          <mxGeometry x="320" y="795" width="40" height="40" as="geometry" />
        </mxCell>
        <mxCell id="nslEOduzyJcP9oeF_xEr-114" value="" style="ellipse;whiteSpace=wrap;html=1;aspect=fixed;" parent="nslEOduzyJcP9oeF_xEr-113" vertex="1">
          <mxGeometry width="40" height="40" as="geometry" />
        </mxCell>
        <mxCell id="nslEOduzyJcP9oeF_xEr-115" value="19" style="ellipse;whiteSpace=wrap;html=1;aspect=fixed;" parent="nslEOduzyJcP9oeF_xEr-113" vertex="1">
          <mxGeometry x="6.5" y="6.5" width="27" height="27" as="geometry" />
        </mxCell>
        <mxCell id="nslEOduzyJcP9oeF_xEr-116" value="(SEMICOLON, &quot;;&quot;)" style="text;html=1;align=center;verticalAlign=middle;resizable=0;points=[];autosize=1;strokeColor=none;fillColor=none;" parent="1" vertex="1">
          <mxGeometry x="363" y="800" width="120" height="30" as="geometry" />
        </mxCell>
        <mxCell id="nslEOduzyJcP9oeF_xEr-117" value=";" style="text;html=1;align=center;verticalAlign=middle;resizable=0;points=[];autosize=1;strokeColor=none;fillColor=none;fontStyle=0;fontSize=18;" parent="1" vertex="1">
          <mxGeometry x="140" y="775" width="30" height="40" as="geometry" />
        </mxCell>
        <mxCell id="nslEOduzyJcP9oeF_xEr-119" value="2" style="group" parent="1" vertex="1" connectable="0">
          <mxGeometry x="320" y="850" width="40" height="40" as="geometry" />
        </mxCell>
        <mxCell id="nslEOduzyJcP9oeF_xEr-120" value="" style="ellipse;whiteSpace=wrap;html=1;aspect=fixed;" parent="nslEOduzyJcP9oeF_xEr-119" vertex="1">
          <mxGeometry width="40" height="40" as="geometry" />
        </mxCell>
        <mxCell id="nslEOduzyJcP9oeF_xEr-121" value="20" style="ellipse;whiteSpace=wrap;html=1;aspect=fixed;" parent="nslEOduzyJcP9oeF_xEr-119" vertex="1">
          <mxGeometry x="6.5" y="6.5" width="27" height="27" as="geometry" />
        </mxCell>
        <mxCell id="nslEOduzyJcP9oeF_xEr-122" value="(LPAR, &quot;(&quot;)" style="text;html=1;align=center;verticalAlign=middle;resizable=0;points=[];autosize=1;strokeColor=none;fillColor=none;" parent="1" vertex="1">
          <mxGeometry x="383" y="855" width="80" height="30" as="geometry" />
        </mxCell>
        <mxCell id="nslEOduzyJcP9oeF_xEr-124" value="(" style="text;html=1;align=center;verticalAlign=middle;resizable=0;points=[];autosize=1;strokeColor=none;fillColor=none;fontStyle=0;fontSize=18;" parent="1" vertex="1">
          <mxGeometry x="145" y="830" width="30" height="40" as="geometry" />
        </mxCell>
        <mxCell id="nslEOduzyJcP9oeF_xEr-125" value="2" style="group" parent="1" vertex="1" connectable="0">
          <mxGeometry x="320" y="900" width="40" height="40" as="geometry" />
        </mxCell>
        <mxCell id="nslEOduzyJcP9oeF_xEr-126" value="" style="ellipse;whiteSpace=wrap;html=1;aspect=fixed;" parent="nslEOduzyJcP9oeF_xEr-125" vertex="1">
          <mxGeometry width="40" height="40" as="geometry" />
        </mxCell>
        <mxCell id="nslEOduzyJcP9oeF_xEr-127" value="21" style="ellipse;whiteSpace=wrap;html=1;aspect=fixed;" parent="nslEOduzyJcP9oeF_xEr-125" vertex="1">
          <mxGeometry x="6.5" y="6.5" width="27" height="27" as="geometry" />
        </mxCell>
        <mxCell id="nslEOduzyJcP9oeF_xEr-128" value="(RPAR, &quot;)&quot;)" style="text;html=1;align=center;verticalAlign=middle;resizable=0;points=[];autosize=1;strokeColor=none;fillColor=none;" parent="1" vertex="1">
          <mxGeometry x="383" y="905" width="80" height="30" as="geometry" />
        </mxCell>
        <mxCell id="nslEOduzyJcP9oeF_xEr-130" value=")" style="text;html=1;align=center;verticalAlign=middle;resizable=0;points=[];autosize=1;strokeColor=none;fillColor=none;fontStyle=0;fontSize=18;" parent="1" vertex="1">
          <mxGeometry x="145" y="880" width="30" height="40" as="geometry" />
        </mxCell>
        <mxCell id="nslEOduzyJcP9oeF_xEr-131" value="2" style="group" parent="1" vertex="1" connectable="0">
          <mxGeometry x="320" y="960" width="40" height="40" as="geometry" />
        </mxCell>
        <mxCell id="nslEOduzyJcP9oeF_xEr-132" value="" style="ellipse;whiteSpace=wrap;html=1;aspect=fixed;" parent="nslEOduzyJcP9oeF_xEr-131" vertex="1">
          <mxGeometry width="40" height="40" as="geometry" />
        </mxCell>
        <mxCell id="nslEOduzyJcP9oeF_xEr-133" value="22" style="ellipse;whiteSpace=wrap;html=1;aspect=fixed;" parent="nslEOduzyJcP9oeF_xEr-131" vertex="1">
          <mxGeometry x="6.5" y="6.5" width="27" height="27" as="geometry" />
        </mxCell>
        <mxCell id="nslEOduzyJcP9oeF_xEr-134" value="(LBRACE, &quot;{&quot;)" style="text;html=1;align=center;verticalAlign=middle;resizable=0;points=[];autosize=1;strokeColor=none;fillColor=none;" parent="1" vertex="1">
          <mxGeometry x="373" y="965" width="100" height="30" as="geometry" />
        </mxCell>
        <mxCell id="nslEOduzyJcP9oeF_xEr-136" value="{" style="text;html=1;align=center;verticalAlign=middle;resizable=0;points=[];autosize=1;strokeColor=none;fillColor=none;fontStyle=0;fontSize=18;" parent="1" vertex="1">
          <mxGeometry x="145" y="940" width="30" height="40" as="geometry" />
        </mxCell>
        <mxCell id="nslEOduzyJcP9oeF_xEr-137" value="2" style="group" parent="1" vertex="1" connectable="0">
          <mxGeometry x="321.5" y="1010" width="40" height="40" as="geometry" />
        </mxCell>
        <mxCell id="nslEOduzyJcP9oeF_xEr-138" value="" style="ellipse;whiteSpace=wrap;html=1;aspect=fixed;" parent="nslEOduzyJcP9oeF_xEr-137" vertex="1">
          <mxGeometry width="40" height="40" as="geometry" />
        </mxCell>
        <mxCell id="nslEOduzyJcP9oeF_xEr-139" value="23" style="ellipse;whiteSpace=wrap;html=1;aspect=fixed;" parent="nslEOduzyJcP9oeF_xEr-137" vertex="1">
          <mxGeometry x="6.5" y="6.5" width="27" height="27" as="geometry" />
        </mxCell>
        <mxCell id="nslEOduzyJcP9oeF_xEr-140" value="(RBRACE, &quot;}&quot;)" style="text;html=1;align=center;verticalAlign=middle;resizable=0;points=[];autosize=1;strokeColor=none;fillColor=none;" parent="1" vertex="1">
          <mxGeometry x="374.5" y="1015" width="100" height="30" as="geometry" />
        </mxCell>
        <mxCell id="nslEOduzyJcP9oeF_xEr-142" value="}" style="text;html=1;align=center;verticalAlign=middle;resizable=0;points=[];autosize=1;strokeColor=none;fillColor=none;fontStyle=0;fontSize=18;" parent="1" vertex="1">
          <mxGeometry x="145" y="990" width="30" height="40" as="geometry" />
        </mxCell>
        <mxCell id="nslEOduzyJcP9oeF_xEr-143" value="2" style="group" parent="1" vertex="1" connectable="0">
          <mxGeometry x="321.5" y="1070" width="40" height="40" as="geometry" />
        </mxCell>
        <mxCell id="nslEOduzyJcP9oeF_xEr-144" value="" style="ellipse;whiteSpace=wrap;html=1;aspect=fixed;" parent="nslEOduzyJcP9oeF_xEr-143" vertex="1">
          <mxGeometry width="40" height="40" as="geometry" />
        </mxCell>
        <mxCell id="nslEOduzyJcP9oeF_xEr-145" value="24" style="ellipse;whiteSpace=wrap;html=1;aspect=fixed;" parent="nslEOduzyJcP9oeF_xEr-143" vertex="1">
          <mxGeometry x="6.5" y="6.5" width="27" height="27" as="geometry" />
        </mxCell>
        <mxCell id="nslEOduzyJcP9oeF_xEr-146" value="(LBRACKET, &quot;[&quot;)" style="text;html=1;align=center;verticalAlign=middle;resizable=0;points=[];autosize=1;strokeColor=none;fillColor=none;" parent="1" vertex="1">
          <mxGeometry x="369.5" y="1075" width="110" height="30" as="geometry" />
        </mxCell>
        <mxCell id="nslEOduzyJcP9oeF_xEr-147" value="2" style="group" parent="1" vertex="1" connectable="0">
          <mxGeometry x="323" y="1120" width="40" height="40" as="geometry" />
        </mxCell>
        <mxCell id="nslEOduzyJcP9oeF_xEr-148" value="" style="ellipse;whiteSpace=wrap;html=1;aspect=fixed;" parent="nslEOduzyJcP9oeF_xEr-147" vertex="1">
          <mxGeometry width="40" height="40" as="geometry" />
        </mxCell>
        <mxCell id="nslEOduzyJcP9oeF_xEr-149" value="25" style="ellipse;whiteSpace=wrap;html=1;aspect=fixed;" parent="nslEOduzyJcP9oeF_xEr-147" vertex="1">
          <mxGeometry x="6.5" y="6.5" width="27" height="27" as="geometry" />
        </mxCell>
        <mxCell id="nslEOduzyJcP9oeF_xEr-150" value="(RBRACKET, &quot;]&quot;)" style="text;html=1;align=center;verticalAlign=middle;resizable=0;points=[];autosize=1;strokeColor=none;fillColor=none;" parent="1" vertex="1">
          <mxGeometry x="371" y="1125" width="110" height="30" as="geometry" />
        </mxCell>
        <mxCell id="nslEOduzyJcP9oeF_xEr-153" value="[" style="text;html=1;align=center;verticalAlign=middle;resizable=0;points=[];autosize=1;strokeColor=none;fillColor=none;fontStyle=0;fontSize=18;" parent="1" vertex="1">
          <mxGeometry x="145" y="1050" width="30" height="40" as="geometry" />
        </mxCell>
        <mxCell id="nslEOduzyJcP9oeF_xEr-154" value="]" style="text;html=1;align=center;verticalAlign=middle;resizable=0;points=[];autosize=1;strokeColor=none;fillColor=none;fontStyle=0;fontSize=18;" parent="1" vertex="1">
          <mxGeometry x="145" y="1100" width="30" height="40" as="geometry" />
        </mxCell>
        <mxCell id="nslEOduzyJcP9oeF_xEr-160" value="" style="endArrow=classic;html=1;rounded=0;entryX=0;entryY=0.5;entryDx=0;entryDy=0;jumpStyle=none;" parent="1" target="nslEOduzyJcP9oeF_xEr-30" edge="1">
          <mxGeometry width="50" height="50" relative="1" as="geometry">
            <mxPoint x="100" y="170" as="sourcePoint" />
            <mxPoint x="210" y="160" as="targetPoint" />
            <Array as="points">
              <mxPoint x="210" y="170" />
            </Array>
          </mxGeometry>
        </mxCell>
        <mxCell id="nslEOduzyJcP9oeF_xEr-161" value="" style="endArrow=classic;html=1;rounded=0;entryX=0;entryY=0.5;entryDx=0;entryDy=0;jumpStyle=none;" parent="1" target="nslEOduzyJcP9oeF_xEr-35" edge="1">
          <mxGeometry width="50" height="50" relative="1" as="geometry">
            <mxPoint x="100" y="219.73" as="sourcePoint" />
            <mxPoint x="320" y="219.73" as="targetPoint" />
          </mxGeometry>
        </mxCell>
        <mxCell id="nslEOduzyJcP9oeF_xEr-162" value="" style="endArrow=classic;html=1;rounded=0;entryX=0;entryY=0.5;entryDx=0;entryDy=0;jumpStyle=none;" parent="1" target="nslEOduzyJcP9oeF_xEr-41" edge="1">
          <mxGeometry width="50" height="50" relative="1" as="geometry">
            <mxPoint x="100" y="270" as="sourcePoint" />
            <mxPoint x="330" y="230" as="targetPoint" />
          </mxGeometry>
        </mxCell>
        <mxCell id="nslEOduzyJcP9oeF_xEr-163" value="" style="endArrow=classic;html=1;rounded=0;entryX=0;entryY=0.5;entryDx=0;entryDy=0;jumpStyle=none;" parent="1" target="nslEOduzyJcP9oeF_xEr-45" edge="1">
          <mxGeometry width="50" height="50" relative="1" as="geometry">
            <mxPoint x="100" y="320" as="sourcePoint" />
            <mxPoint x="330" y="280" as="targetPoint" />
          </mxGeometry>
        </mxCell>
        <mxCell id="nslEOduzyJcP9oeF_xEr-164" value="" style="endArrow=classic;html=1;rounded=0;entryX=0;entryY=0.5;entryDx=0;entryDy=0;jumpStyle=none;" parent="1" target="nslEOduzyJcP9oeF_xEr-52" edge="1">
          <mxGeometry width="50" height="50" relative="1" as="geometry">
            <mxPoint x="100" y="435" as="sourcePoint" />
            <mxPoint x="330" y="330" as="targetPoint" />
          </mxGeometry>
        </mxCell>
        <mxCell id="nslEOduzyJcP9oeF_xEr-165" value="" style="endArrow=classic;html=1;rounded=0;entryX=0;entryY=0.5;entryDx=0;entryDy=0;jumpStyle=none;" parent="1" target="nslEOduzyJcP9oeF_xEr-79" edge="1">
          <mxGeometry width="50" height="50" relative="1" as="geometry">
            <mxPoint x="100" y="540" as="sourcePoint" />
            <mxPoint x="210" y="445" as="targetPoint" />
          </mxGeometry>
        </mxCell>
        <mxCell id="nslEOduzyJcP9oeF_xEr-166" value="" style="endArrow=classic;html=1;rounded=0;entryX=0;entryY=0.5;entryDx=0;entryDy=0;jumpStyle=none;" parent="1" target="nslEOduzyJcP9oeF_xEr-94" edge="1">
          <mxGeometry width="50" height="50" relative="1" as="geometry">
            <mxPoint x="100" y="650" as="sourcePoint" />
            <mxPoint x="210" y="550" as="targetPoint" />
          </mxGeometry>
        </mxCell>
        <mxCell id="nslEOduzyJcP9oeF_xEr-167" value="" style="endArrow=classic;html=1;rounded=0;entryX=0;entryY=0.5;entryDx=0;entryDy=0;jumpStyle=none;" parent="1" target="nslEOduzyJcP9oeF_xEr-108" edge="1">
          <mxGeometry width="50" height="50" relative="1" as="geometry">
            <mxPoint x="100" y="755" as="sourcePoint" />
            <mxPoint x="210" y="660" as="targetPoint" />
          </mxGeometry>
        </mxCell>
        <mxCell id="nslEOduzyJcP9oeF_xEr-168" value="" style="endArrow=classic;html=1;rounded=0;entryX=0;entryY=0.5;entryDx=0;entryDy=0;jumpStyle=none;" parent="1" target="nslEOduzyJcP9oeF_xEr-114" edge="1">
          <mxGeometry width="50" height="50" relative="1" as="geometry">
            <mxPoint x="100" y="815" as="sourcePoint" />
            <mxPoint x="330" y="765" as="targetPoint" />
          </mxGeometry>
        </mxCell>
        <mxCell id="nslEOduzyJcP9oeF_xEr-169" value="" style="endArrow=classic;html=1;rounded=0;entryX=0;entryY=0.5;entryDx=0;entryDy=0;jumpStyle=none;" parent="1" target="nslEOduzyJcP9oeF_xEr-120" edge="1">
          <mxGeometry width="50" height="50" relative="1" as="geometry">
            <mxPoint x="100" y="870" as="sourcePoint" />
            <mxPoint x="330" y="825" as="targetPoint" />
          </mxGeometry>
        </mxCell>
        <mxCell id="nslEOduzyJcP9oeF_xEr-170" value="" style="endArrow=classic;html=1;rounded=0;entryX=0;entryY=0.5;entryDx=0;entryDy=0;jumpStyle=none;" parent="1" target="nslEOduzyJcP9oeF_xEr-126" edge="1">
          <mxGeometry width="50" height="50" relative="1" as="geometry">
            <mxPoint x="100" y="920" as="sourcePoint" />
            <mxPoint x="330" y="880" as="targetPoint" />
          </mxGeometry>
        </mxCell>
        <mxCell id="nslEOduzyJcP9oeF_xEr-171" value="" style="endArrow=classic;html=1;rounded=0;entryX=0;entryY=0.5;entryDx=0;entryDy=0;jumpStyle=none;" parent="1" target="nslEOduzyJcP9oeF_xEr-132" edge="1">
          <mxGeometry width="50" height="50" relative="1" as="geometry">
            <mxPoint x="100" y="980" as="sourcePoint" />
            <mxPoint x="330" y="930" as="targetPoint" />
          </mxGeometry>
        </mxCell>
        <mxCell id="nslEOduzyJcP9oeF_xEr-172" value="" style="endArrow=classic;html=1;rounded=0;entryX=0;entryY=0.5;entryDx=0;entryDy=0;jumpStyle=none;" parent="1" target="nslEOduzyJcP9oeF_xEr-138" edge="1">
          <mxGeometry width="50" height="50" relative="1" as="geometry">
            <mxPoint x="100" y="1030" as="sourcePoint" />
            <mxPoint x="330" y="990" as="targetPoint" />
          </mxGeometry>
        </mxCell>
        <mxCell id="nslEOduzyJcP9oeF_xEr-173" value="" style="endArrow=classic;html=1;rounded=0;entryX=0;entryY=0.5;entryDx=0;entryDy=0;jumpStyle=none;" parent="1" target="nslEOduzyJcP9oeF_xEr-144" edge="1">
          <mxGeometry width="50" height="50" relative="1" as="geometry">
            <mxPoint x="100" y="1090" as="sourcePoint" />
            <mxPoint x="332" y="1040" as="targetPoint" />
          </mxGeometry>
        </mxCell>
        <mxCell id="nslEOduzyJcP9oeF_xEr-174" style="edgeStyle=orthogonalEdgeStyle;rounded=0;orthogonalLoop=1;jettySize=auto;html=1;exitX=1;exitY=0.5;exitDx=0;exitDy=0;entryX=0;entryY=0.5;entryDx=0;entryDy=0;" parent="1" source="nslEOduzyJcP9oeF_xEr-176" target="nslEOduzyJcP9oeF_xEr-178" edge="1">
          <mxGeometry relative="1" as="geometry" />
        </mxCell>
        <mxCell id="nslEOduzyJcP9oeF_xEr-175" style="edgeStyle=orthogonalEdgeStyle;rounded=0;orthogonalLoop=1;jettySize=auto;html=1;exitX=0.5;exitY=1;exitDx=0;exitDy=0;entryX=0;entryY=0.5;entryDx=0;entryDy=0;" parent="1" source="nslEOduzyJcP9oeF_xEr-176" target="nslEOduzyJcP9oeF_xEr-183" edge="1">
          <mxGeometry relative="1" as="geometry" />
        </mxCell>
        <mxCell id="nslEOduzyJcP9oeF_xEr-176" value="26" style="ellipse;whiteSpace=wrap;html=1;aspect=fixed;" parent="1" vertex="1">
          <mxGeometry x="600" y="40" width="40" height="40" as="geometry" />
        </mxCell>
        <mxCell id="nslEOduzyJcP9oeF_xEr-177" value="2" style="group" parent="1" vertex="1" connectable="0">
          <mxGeometry x="720" y="40" width="40" height="40" as="geometry" />
        </mxCell>
        <mxCell id="nslEOduzyJcP9oeF_xEr-178" value="" style="ellipse;whiteSpace=wrap;html=1;aspect=fixed;" parent="nslEOduzyJcP9oeF_xEr-177" vertex="1">
          <mxGeometry width="40" height="40" as="geometry" />
        </mxCell>
        <mxCell id="nslEOduzyJcP9oeF_xEr-179" value="27" style="ellipse;whiteSpace=wrap;html=1;aspect=fixed;" parent="nslEOduzyJcP9oeF_xEr-177" vertex="1">
          <mxGeometry x="6.5" y="6.5" width="27" height="27" as="geometry" />
        </mxCell>
        <mxCell id="nslEOduzyJcP9oeF_xEr-180" value="&amp;amp;" style="text;html=1;align=center;verticalAlign=middle;resizable=0;points=[];autosize=1;strokeColor=none;fillColor=none;fontStyle=0;fontSize=18;" parent="1" vertex="1">
          <mxGeometry x="645" y="23" width="40" height="40" as="geometry" />
        </mxCell>
        <mxCell id="nslEOduzyJcP9oeF_xEr-181" value="(LAND, &quot;&amp;amp;&amp;amp;&quot;)" style="text;html=1;align=center;verticalAlign=middle;resizable=0;points=[];autosize=1;strokeColor=none;fillColor=none;" parent="1" vertex="1">
          <mxGeometry x="763" y="45" width="90" height="30" as="geometry" />
        </mxCell>
        <mxCell id="nslEOduzyJcP9oeF_xEr-182" value="2" style="group" parent="1" vertex="1" connectable="0">
          <mxGeometry x="720" y="100" width="40" height="40" as="geometry" />
        </mxCell>
        <mxCell id="nslEOduzyJcP9oeF_xEr-183" value="" style="ellipse;whiteSpace=wrap;html=1;aspect=fixed;" parent="nslEOduzyJcP9oeF_xEr-182" vertex="1">
          <mxGeometry width="40" height="40" as="geometry" />
        </mxCell>
        <mxCell id="nslEOduzyJcP9oeF_xEr-184" value="28" style="ellipse;whiteSpace=wrap;html=1;aspect=fixed;" parent="nslEOduzyJcP9oeF_xEr-182" vertex="1">
          <mxGeometry x="6.5" y="6.5" width="27" height="27" as="geometry" />
        </mxCell>
        <mxCell id="nslEOduzyJcP9oeF_xEr-185" value="(ILLEGAL, ch)" style="text;html=1;align=center;verticalAlign=middle;resizable=0;points=[];autosize=1;strokeColor=none;fillColor=none;" parent="1" vertex="1">
          <mxGeometry x="763" y="105" width="100" height="30" as="geometry" />
        </mxCell>
        <mxCell id="nslEOduzyJcP9oeF_xEr-186" value="Other" style="text;html=1;align=center;verticalAlign=middle;resizable=0;points=[];autosize=1;strokeColor=none;fillColor=none;" parent="1" vertex="1">
          <mxGeometry x="620" y="88" width="50" height="30" as="geometry" />
        </mxCell>
        <mxCell id="nslEOduzyJcP9oeF_xEr-189" style="rounded=0;orthogonalLoop=1;jettySize=auto;html=1;entryX=0;entryY=0.5;entryDx=0;entryDy=0;" parent="1" target="nslEOduzyJcP9oeF_xEr-176" edge="1">
          <mxGeometry relative="1" as="geometry">
            <mxPoint x="510" y="60" as="sourcePoint" />
            <mxPoint x="588" y="40" as="targetPoint" />
          </mxGeometry>
        </mxCell>
        <mxCell id="nslEOduzyJcP9oeF_xEr-190" value="&amp;amp;" style="text;html=1;align=center;verticalAlign=middle;resizable=0;points=[];autosize=1;strokeColor=none;fillColor=none;fontStyle=0;fontSize=18;" parent="1" vertex="1">
          <mxGeometry x="535" y="23" width="40" height="40" as="geometry" />
        </mxCell>
        <mxCell id="nslEOduzyJcP9oeF_xEr-191" style="edgeStyle=orthogonalEdgeStyle;rounded=0;orthogonalLoop=1;jettySize=auto;html=1;exitX=1;exitY=0.5;exitDx=0;exitDy=0;entryX=0;entryY=0.5;entryDx=0;entryDy=0;" parent="1" source="nslEOduzyJcP9oeF_xEr-193" target="nslEOduzyJcP9oeF_xEr-195" edge="1">
          <mxGeometry relative="1" as="geometry" />
        </mxCell>
        <mxCell id="nslEOduzyJcP9oeF_xEr-192" style="edgeStyle=orthogonalEdgeStyle;rounded=0;orthogonalLoop=1;jettySize=auto;html=1;exitX=0.5;exitY=1;exitDx=0;exitDy=0;entryX=0;entryY=0.5;entryDx=0;entryDy=0;" parent="1" source="nslEOduzyJcP9oeF_xEr-193" target="nslEOduzyJcP9oeF_xEr-200" edge="1">
          <mxGeometry relative="1" as="geometry" />
        </mxCell>
        <mxCell id="nslEOduzyJcP9oeF_xEr-193" value="29" style="ellipse;whiteSpace=wrap;html=1;aspect=fixed;" parent="1" vertex="1">
          <mxGeometry x="600" y="152" width="40" height="40" as="geometry" />
        </mxCell>
        <mxCell id="nslEOduzyJcP9oeF_xEr-194" value="2" style="group" parent="1" vertex="1" connectable="0">
          <mxGeometry x="720" y="152" width="40" height="40" as="geometry" />
        </mxCell>
        <mxCell id="nslEOduzyJcP9oeF_xEr-195" value="" style="ellipse;whiteSpace=wrap;html=1;aspect=fixed;" parent="nslEOduzyJcP9oeF_xEr-194" vertex="1">
          <mxGeometry width="40" height="40" as="geometry" />
        </mxCell>
        <mxCell id="nslEOduzyJcP9oeF_xEr-196" value="30" style="ellipse;whiteSpace=wrap;html=1;aspect=fixed;" parent="nslEOduzyJcP9oeF_xEr-194" vertex="1">
          <mxGeometry x="6.5" y="6.5" width="27" height="27" as="geometry" />
        </mxCell>
        <mxCell id="nslEOduzyJcP9oeF_xEr-197" value="|" style="text;html=1;align=center;verticalAlign=middle;resizable=0;points=[];autosize=1;strokeColor=none;fillColor=none;fontStyle=0;fontSize=18;" parent="1" vertex="1">
          <mxGeometry x="650" y="135" width="30" height="40" as="geometry" />
        </mxCell>
        <mxCell id="nslEOduzyJcP9oeF_xEr-198" value="(LOR, &quot;||&quot;)" style="text;html=1;align=center;verticalAlign=middle;resizable=0;points=[];autosize=1;strokeColor=none;fillColor=none;" parent="1" vertex="1">
          <mxGeometry x="763" y="157" width="80" height="30" as="geometry" />
        </mxCell>
        <mxCell id="nslEOduzyJcP9oeF_xEr-199" value="2" style="group" parent="1" vertex="1" connectable="0">
          <mxGeometry x="720" y="212" width="40" height="40" as="geometry" />
        </mxCell>
        <mxCell id="nslEOduzyJcP9oeF_xEr-200" value="" style="ellipse;whiteSpace=wrap;html=1;aspect=fixed;" parent="nslEOduzyJcP9oeF_xEr-199" vertex="1">
          <mxGeometry width="40" height="40" as="geometry" />
        </mxCell>
        <mxCell id="nslEOduzyJcP9oeF_xEr-201" value="31" style="ellipse;whiteSpace=wrap;html=1;aspect=fixed;" parent="nslEOduzyJcP9oeF_xEr-199" vertex="1">
          <mxGeometry x="6.5" y="6.5" width="27" height="27" as="geometry" />
        </mxCell>
        <mxCell id="nslEOduzyJcP9oeF_xEr-202" value="(ILLEGAL, ch)" style="text;html=1;align=center;verticalAlign=middle;resizable=0;points=[];autosize=1;strokeColor=none;fillColor=none;" parent="1" vertex="1">
          <mxGeometry x="763" y="217" width="100" height="30" as="geometry" />
        </mxCell>
        <mxCell id="nslEOduzyJcP9oeF_xEr-203" value="Other" style="text;html=1;align=center;verticalAlign=middle;resizable=0;points=[];autosize=1;strokeColor=none;fillColor=none;" parent="1" vertex="1">
          <mxGeometry x="620" y="200" width="50" height="30" as="geometry" />
        </mxCell>
        <mxCell id="nslEOduzyJcP9oeF_xEr-204" value="|" style="text;html=1;align=center;verticalAlign=middle;resizable=0;points=[];autosize=1;strokeColor=none;fillColor=none;fontStyle=0;fontSize=18;" parent="1" vertex="1">
          <mxGeometry x="540" y="135" width="30" height="40" as="geometry" />
        </mxCell>
        <mxCell id="nslEOduzyJcP9oeF_xEr-205" style="rounded=0;orthogonalLoop=1;jettySize=auto;html=1;entryX=0;entryY=0.5;entryDx=0;entryDy=0;" parent="1" target="nslEOduzyJcP9oeF_xEr-193" edge="1">
          <mxGeometry relative="1" as="geometry">
            <mxPoint x="510" y="172" as="sourcePoint" />
            <mxPoint x="610" y="192" as="targetPoint" />
          </mxGeometry>
        </mxCell>
        <mxCell id="nslEOduzyJcP9oeF_xEr-206" value="2" style="group" parent="1" vertex="1" connectable="0">
          <mxGeometry x="720" y="265" width="40" height="40" as="geometry" />
        </mxCell>
        <mxCell id="nslEOduzyJcP9oeF_xEr-207" value="" style="ellipse;whiteSpace=wrap;html=1;aspect=fixed;" parent="nslEOduzyJcP9oeF_xEr-206" vertex="1">
          <mxGeometry width="40" height="40" as="geometry" />
        </mxCell>
        <mxCell id="nslEOduzyJcP9oeF_xEr-208" value="32" style="ellipse;whiteSpace=wrap;html=1;aspect=fixed;" parent="nslEOduzyJcP9oeF_xEr-206" vertex="1">
          <mxGeometry x="6.5" y="6.5" width="27" height="27" as="geometry" />
        </mxCell>
        <mxCell id="nslEOduzyJcP9oeF_xEr-209" value="(EOF, &quot;&quot;)" style="text;html=1;align=center;verticalAlign=middle;resizable=0;points=[];autosize=1;strokeColor=none;fillColor=none;" parent="1" vertex="1">
          <mxGeometry x="768" y="270" width="70" height="30" as="geometry" />
        </mxCell>
        <mxCell id="nslEOduzyJcP9oeF_xEr-210" value="" style="endArrow=classic;html=1;rounded=0;entryX=0;entryY=0.5;entryDx=0;entryDy=0;jumpStyle=none;" parent="1" target="nslEOduzyJcP9oeF_xEr-207" edge="1">
          <mxGeometry width="50" height="50" relative="1" as="geometry">
            <mxPoint x="510" y="285" as="sourcePoint" />
            <mxPoint x="610" y="190" as="targetPoint" />
          </mxGeometry>
        </mxCell>
        <mxCell id="nslEOduzyJcP9oeF_xEr-211" value="null" style="text;html=1;align=center;verticalAlign=middle;resizable=0;points=[];autosize=1;strokeColor=none;fillColor=none;fontStyle=0;fontSize=12;" parent="1" vertex="1">
          <mxGeometry x="540" y="250" width="40" height="30" as="geometry" />
        </mxCell>
        <mxCell id="nslEOduzyJcP9oeF_xEr-212" value="2" style="group" parent="1" vertex="1" connectable="0">
          <mxGeometry x="720" y="320" width="40" height="40" as="geometry" />
        </mxCell>
        <mxCell id="nslEOduzyJcP9oeF_xEr-213" value="" style="ellipse;whiteSpace=wrap;html=1;aspect=fixed;" parent="nslEOduzyJcP9oeF_xEr-212" vertex="1">
          <mxGeometry width="40" height="40" as="geometry" />
        </mxCell>
        <mxCell id="nslEOduzyJcP9oeF_xEr-214" value="34" style="ellipse;whiteSpace=wrap;html=1;aspect=fixed;" parent="nslEOduzyJcP9oeF_xEr-212" vertex="1">
          <mxGeometry x="6.5" y="6.5" width="27" height="27" as="geometry" />
        </mxCell>
        <mxCell id="nslEOduzyJcP9oeF_xEr-215" value="(STRING, value)" style="text;html=1;align=center;verticalAlign=middle;resizable=0;points=[];autosize=1;strokeColor=none;fillColor=none;" parent="1" vertex="1">
          <mxGeometry x="763" y="325" width="110" height="30" as="geometry" />
        </mxCell>
        <mxCell id="nslEOduzyJcP9oeF_xEr-216" value="" style="endArrow=classic;html=1;rounded=0;entryX=0;entryY=0.5;entryDx=0;entryDy=0;jumpStyle=none;" parent="1" target="nslEOduzyJcP9oeF_xEr-218" edge="1">
          <mxGeometry width="50" height="50" relative="1" as="geometry">
            <mxPoint x="510" y="340" as="sourcePoint" />
            <mxPoint x="613.5" y="245" as="targetPoint" />
          </mxGeometry>
        </mxCell>
        <mxCell id="nslEOduzyJcP9oeF_xEr-217" value="&quot;" style="text;html=1;align=center;verticalAlign=middle;resizable=0;points=[];autosize=1;strokeColor=none;fillColor=none;fontStyle=0;fontSize=18;" parent="1" vertex="1">
          <mxGeometry x="545" y="305" width="30" height="40" as="geometry" />
        </mxCell>
        <mxCell id="nslEOduzyJcP9oeF_xEr-219" style="edgeStyle=orthogonalEdgeStyle;rounded=0;orthogonalLoop=1;jettySize=auto;html=1;exitX=1;exitY=1;exitDx=0;exitDy=0;curved=1;entryX=0;entryY=1;entryDx=0;entryDy=0;" parent="1" source="nslEOduzyJcP9oeF_xEr-218" target="nslEOduzyJcP9oeF_xEr-218" edge="1">
          <mxGeometry relative="1" as="geometry">
            <mxPoint x="610" y="420" as="targetPoint" />
            <Array as="points">
              <mxPoint x="634" y="380" />
              <mxPoint x="606" y="380" />
            </Array>
          </mxGeometry>
        </mxCell>
        <mxCell id="nslEOduzyJcP9oeF_xEr-218" value="33" style="ellipse;whiteSpace=wrap;html=1;aspect=fixed;" parent="1" vertex="1">
          <mxGeometry x="600" y="320" width="40" height="40" as="geometry" />
        </mxCell>
        <mxCell id="nslEOduzyJcP9oeF_xEr-220" value="not(&quot; or null)" style="text;html=1;align=center;verticalAlign=middle;resizable=0;points=[];autosize=1;strokeColor=none;fillColor=none;" parent="1" vertex="1">
          <mxGeometry x="575" y="380" width="90" height="30" as="geometry" />
        </mxCell>
        <mxCell id="nslEOduzyJcP9oeF_xEr-221" style="edgeStyle=orthogonalEdgeStyle;rounded=0;orthogonalLoop=1;jettySize=auto;html=1;exitX=1;exitY=0.5;exitDx=0;exitDy=0;entryX=0;entryY=0.5;entryDx=0;entryDy=0;" parent="1" source="nslEOduzyJcP9oeF_xEr-218" target="nslEOduzyJcP9oeF_xEr-213" edge="1">
          <mxGeometry relative="1" as="geometry" />
        </mxCell>
        <mxCell id="nslEOduzyJcP9oeF_xEr-223" value="&quot; or null" style="text;html=1;align=center;verticalAlign=middle;resizable=0;points=[];autosize=1;strokeColor=none;fillColor=none;fontStyle=0;fontSize=12;" parent="1" vertex="1">
          <mxGeometry x="645" y="310" width="60" height="30" as="geometry" />
        </mxCell>
        <mxCell id="nslEOduzyJcP9oeF_xEr-224" value="2" style="group" parent="1" vertex="1" connectable="0">
          <mxGeometry x="841" y="440" width="40" height="40" as="geometry" />
        </mxCell>
        <mxCell id="nslEOduzyJcP9oeF_xEr-225" value="" style="ellipse;whiteSpace=wrap;html=1;aspect=fixed;" parent="nslEOduzyJcP9oeF_xEr-224" vertex="1">
          <mxGeometry width="40" height="40" as="geometry" />
        </mxCell>
        <mxCell id="nslEOduzyJcP9oeF_xEr-226" value="37" style="ellipse;whiteSpace=wrap;html=1;aspect=fixed;" parent="nslEOduzyJcP9oeF_xEr-224" vertex="1">
          <mxGeometry x="6.5" y="6.5" width="27" height="27" as="geometry" />
        </mxCell>
        <mxCell id="nslEOduzyJcP9oeF_xEr-227" value="(keyword, value)" style="text;html=1;align=center;verticalAlign=middle;resizable=0;points=[];autosize=1;strokeColor=none;fillColor=none;" parent="1" vertex="1">
          <mxGeometry x="881" y="445" width="110" height="30" as="geometry" />
        </mxCell>
        <mxCell id="nslEOduzyJcP9oeF_xEr-228" value="letter" style="text;html=1;align=center;verticalAlign=middle;resizable=0;points=[];autosize=1;strokeColor=none;fillColor=none;fontStyle=0;fontSize=12;" parent="1" vertex="1">
          <mxGeometry x="535" y="430" width="50" height="30" as="geometry" />
        </mxCell>
        <mxCell id="nslEOduzyJcP9oeF_xEr-229" style="edgeStyle=orthogonalEdgeStyle;rounded=0;orthogonalLoop=1;jettySize=auto;html=1;exitX=1;exitY=1;exitDx=0;exitDy=0;curved=1;entryX=0;entryY=1;entryDx=0;entryDy=0;" parent="1" source="nslEOduzyJcP9oeF_xEr-230" target="nslEOduzyJcP9oeF_xEr-230" edge="1">
          <mxGeometry relative="1" as="geometry">
            <mxPoint x="610" y="540" as="targetPoint" />
            <Array as="points">
              <mxPoint x="634" y="500" />
              <mxPoint x="606" y="500" />
            </Array>
          </mxGeometry>
        </mxCell>
        <mxCell id="nslEOduzyJcP9oeF_xEr-230" value="35" style="ellipse;whiteSpace=wrap;html=1;aspect=fixed;" parent="1" vertex="1">
          <mxGeometry x="600" y="440" width="40" height="40" as="geometry" />
        </mxCell>
        <mxCell id="nslEOduzyJcP9oeF_xEr-231" value="letter" style="text;html=1;align=center;verticalAlign=middle;resizable=0;points=[];autosize=1;strokeColor=none;fillColor=none;" parent="1" vertex="1">
          <mxGeometry x="595" y="500" width="50" height="30" as="geometry" />
        </mxCell>
        <mxCell id="nslEOduzyJcP9oeF_xEr-232" style="edgeStyle=orthogonalEdgeStyle;rounded=0;orthogonalLoop=1;jettySize=auto;html=1;exitX=1;exitY=0.5;exitDx=0;exitDy=0;entryX=0;entryY=0.5;entryDx=0;entryDy=0;" parent="1" source="nslEOduzyJcP9oeF_xEr-230" target="nslEOduzyJcP9oeF_xEr-235" edge="1">
          <mxGeometry relative="1" as="geometry" />
        </mxCell>
        <mxCell id="nslEOduzyJcP9oeF_xEr-234" value="" style="endArrow=classic;html=1;rounded=0;entryX=0;entryY=0.5;entryDx=0;entryDy=0;jumpStyle=none;" parent="1" target="nslEOduzyJcP9oeF_xEr-230" edge="1">
          <mxGeometry width="50" height="50" relative="1" as="geometry">
            <mxPoint x="510" y="460" as="sourcePoint" />
            <mxPoint x="590" y="479.44" as="targetPoint" />
          </mxGeometry>
        </mxCell>
        <mxCell id="nslEOduzyJcP9oeF_xEr-237" style="edgeStyle=orthogonalEdgeStyle;rounded=0;orthogonalLoop=1;jettySize=auto;html=1;exitX=1;exitY=0.5;exitDx=0;exitDy=0;entryX=0;entryY=0.5;entryDx=0;entryDy=0;" parent="1" source="nslEOduzyJcP9oeF_xEr-235" target="nslEOduzyJcP9oeF_xEr-225" edge="1">
          <mxGeometry relative="1" as="geometry">
            <mxPoint x="830" y="440" as="targetPoint" />
          </mxGeometry>
        </mxCell>
        <mxCell id="nslEOduzyJcP9oeF_xEr-243" style="edgeStyle=orthogonalEdgeStyle;rounded=0;orthogonalLoop=1;jettySize=auto;html=1;exitX=0.5;exitY=1;exitDx=0;exitDy=0;entryX=0;entryY=0.5;entryDx=0;entryDy=0;" parent="1" source="nslEOduzyJcP9oeF_xEr-235" target="nslEOduzyJcP9oeF_xEr-240" edge="1">
          <mxGeometry relative="1" as="geometry" />
        </mxCell>
        <mxCell id="nslEOduzyJcP9oeF_xEr-235" value="36" style="ellipse;whiteSpace=wrap;html=1;aspect=fixed;" parent="1" vertex="1">
          <mxGeometry x="723" y="440" width="40" height="40" as="geometry" />
        </mxCell>
        <mxCell id="nslEOduzyJcP9oeF_xEr-236" value="not letter" style="text;html=1;align=center;verticalAlign=middle;resizable=0;points=[];autosize=1;strokeColor=none;fillColor=none;" parent="1" vertex="1">
          <mxGeometry x="645" y="430" width="70" height="30" as="geometry" />
        </mxCell>
        <mxCell id="nslEOduzyJcP9oeF_xEr-238" value="value is&lt;br&gt;keyword" style="text;html=1;align=center;verticalAlign=middle;resizable=0;points=[];autosize=1;strokeColor=none;fillColor=none;" parent="1" vertex="1">
          <mxGeometry x="763" y="420" width="70" height="40" as="geometry" />
        </mxCell>
        <mxCell id="nslEOduzyJcP9oeF_xEr-239" value="2" style="group" parent="1" vertex="1" connectable="0">
          <mxGeometry x="841" y="490" width="40" height="40" as="geometry" />
        </mxCell>
        <mxCell id="nslEOduzyJcP9oeF_xEr-240" value="" style="ellipse;whiteSpace=wrap;html=1;aspect=fixed;" parent="nslEOduzyJcP9oeF_xEr-239" vertex="1">
          <mxGeometry width="40" height="40" as="geometry" />
        </mxCell>
        <mxCell id="nslEOduzyJcP9oeF_xEr-241" value="38" style="ellipse;whiteSpace=wrap;html=1;aspect=fixed;" parent="nslEOduzyJcP9oeF_xEr-239" vertex="1">
          <mxGeometry x="6.5" y="6.5" width="27" height="27" as="geometry" />
        </mxCell>
        <mxCell id="nslEOduzyJcP9oeF_xEr-242" value="(IDENT, value)" style="text;html=1;align=center;verticalAlign=middle;resizable=0;points=[];autosize=1;strokeColor=none;fillColor=none;" parent="1" vertex="1">
          <mxGeometry x="886" y="495" width="100" height="30" as="geometry" />
        </mxCell>
        <mxCell id="nslEOduzyJcP9oeF_xEr-244" value="value is&lt;br&gt;not keyword" style="text;html=1;align=center;verticalAlign=middle;resizable=0;points=[];autosize=1;strokeColor=none;fillColor=none;" parent="1" vertex="1">
          <mxGeometry x="751" y="470" width="90" height="40" as="geometry" />
        </mxCell>
        <mxCell id="nslEOduzyJcP9oeF_xEr-245" value="2" style="group" parent="1" vertex="1" connectable="0">
          <mxGeometry x="720" y="560" width="40" height="40" as="geometry" />
        </mxCell>
        <mxCell id="nslEOduzyJcP9oeF_xEr-246" value="" style="ellipse;whiteSpace=wrap;html=1;aspect=fixed;" parent="nslEOduzyJcP9oeF_xEr-245" vertex="1">
          <mxGeometry width="40" height="40" as="geometry" />
        </mxCell>
        <mxCell id="nslEOduzyJcP9oeF_xEr-247" value="40" style="ellipse;whiteSpace=wrap;html=1;aspect=fixed;" parent="nslEOduzyJcP9oeF_xEr-245" vertex="1">
          <mxGeometry x="6.5" y="6.5" width="27" height="27" as="geometry" />
        </mxCell>
        <mxCell id="nslEOduzyJcP9oeF_xEr-248" value="(INT, value)" style="text;html=1;align=center;verticalAlign=middle;resizable=0;points=[];autosize=1;strokeColor=none;fillColor=none;" parent="1" vertex="1">
          <mxGeometry x="768" y="565" width="80" height="30" as="geometry" />
        </mxCell>
        <mxCell id="nslEOduzyJcP9oeF_xEr-249" value="" style="endArrow=classic;html=1;rounded=0;entryX=0;entryY=0.5;entryDx=0;entryDy=0;jumpStyle=none;" parent="1" target="nslEOduzyJcP9oeF_xEr-252" edge="1">
          <mxGeometry width="50" height="50" relative="1" as="geometry">
            <mxPoint x="510" y="580" as="sourcePoint" />
            <mxPoint x="613.5" y="485" as="targetPoint" />
          </mxGeometry>
        </mxCell>
        <mxCell id="nslEOduzyJcP9oeF_xEr-250" value="digit" style="text;html=1;align=center;verticalAlign=middle;resizable=0;points=[];autosize=1;strokeColor=none;fillColor=none;fontStyle=0;fontSize=12;" parent="1" vertex="1">
          <mxGeometry x="535" y="550" width="50" height="30" as="geometry" />
        </mxCell>
        <mxCell id="nslEOduzyJcP9oeF_xEr-251" style="edgeStyle=orthogonalEdgeStyle;rounded=0;orthogonalLoop=1;jettySize=auto;html=1;exitX=1;exitY=1;exitDx=0;exitDy=0;curved=1;entryX=0;entryY=1;entryDx=0;entryDy=0;" parent="1" source="nslEOduzyJcP9oeF_xEr-252" target="nslEOduzyJcP9oeF_xEr-252" edge="1">
          <mxGeometry relative="1" as="geometry">
            <mxPoint x="610" y="660" as="targetPoint" />
            <Array as="points">
              <mxPoint x="634" y="620" />
              <mxPoint x="606" y="620" />
            </Array>
          </mxGeometry>
        </mxCell>
        <mxCell id="nslEOduzyJcP9oeF_xEr-252" value="39" style="ellipse;whiteSpace=wrap;html=1;aspect=fixed;" parent="1" vertex="1">
          <mxGeometry x="600" y="560" width="40" height="40" as="geometry" />
        </mxCell>
        <mxCell id="nslEOduzyJcP9oeF_xEr-253" value="digit" style="text;html=1;align=center;verticalAlign=middle;resizable=0;points=[];autosize=1;strokeColor=none;fillColor=none;" parent="1" vertex="1">
          <mxGeometry x="595" y="620" width="50" height="30" as="geometry" />
        </mxCell>
        <mxCell id="nslEOduzyJcP9oeF_xEr-254" style="edgeStyle=orthogonalEdgeStyle;rounded=0;orthogonalLoop=1;jettySize=auto;html=1;exitX=1;exitY=0.5;exitDx=0;exitDy=0;entryX=0;entryY=0.5;entryDx=0;entryDy=0;" parent="1" source="nslEOduzyJcP9oeF_xEr-252" target="nslEOduzyJcP9oeF_xEr-246" edge="1">
          <mxGeometry relative="1" as="geometry" />
        </mxCell>
        <mxCell id="nslEOduzyJcP9oeF_xEr-255" value="not digit" style="text;html=1;align=center;verticalAlign=middle;resizable=0;points=[];autosize=1;strokeColor=none;fillColor=none;fontStyle=0;fontSize=12;" parent="1" vertex="1">
          <mxGeometry x="640" y="550" width="70" height="30" as="geometry" />
        </mxCell>
        <mxCell id="nslEOduzyJcP9oeF_xEr-257" value="2" style="group" parent="1" vertex="1" connectable="0">
          <mxGeometry x="720" y="730" width="40" height="40" as="geometry" />
        </mxCell>
        <mxCell id="nslEOduzyJcP9oeF_xEr-258" value="" style="ellipse;whiteSpace=wrap;html=1;aspect=fixed;" parent="nslEOduzyJcP9oeF_xEr-257" vertex="1">
          <mxGeometry width="40" height="40" as="geometry" />
        </mxCell>
        <mxCell id="nslEOduzyJcP9oeF_xEr-259" value="42" style="ellipse;whiteSpace=wrap;html=1;aspect=fixed;" parent="nslEOduzyJcP9oeF_xEr-257" vertex="1">
          <mxGeometry x="6.5" y="6.5" width="27" height="27" as="geometry" />
        </mxCell>
        <mxCell id="nslEOduzyJcP9oeF_xEr-260" value="(ILLEGAL, ch)" style="text;html=1;align=center;verticalAlign=middle;resizable=0;points=[];autosize=1;strokeColor=none;fillColor=none;" parent="1" vertex="1">
          <mxGeometry x="763" y="735" width="100" height="30" as="geometry" />
        </mxCell>
        <mxCell id="nslEOduzyJcP9oeF_xEr-261" value="Other" style="text;html=1;align=center;verticalAlign=middle;resizable=0;points=[];autosize=1;strokeColor=none;fillColor=none;" parent="1" vertex="1">
          <mxGeometry x="545" y="720" width="50" height="30" as="geometry" />
        </mxCell>
        <mxCell id="nslEOduzyJcP9oeF_xEr-263" value="2" style="group" parent="1" vertex="1" connectable="0">
          <mxGeometry x="720" y="660" width="40" height="40" as="geometry" />
        </mxCell>
        <mxCell id="nslEOduzyJcP9oeF_xEr-264" value="" style="ellipse;whiteSpace=wrap;html=1;aspect=fixed;" parent="nslEOduzyJcP9oeF_xEr-263" vertex="1">
          <mxGeometry width="40" height="40" as="geometry" />
        </mxCell>
        <mxCell id="nslEOduzyJcP9oeF_xEr-265" value="41" style="ellipse;whiteSpace=wrap;html=1;aspect=fixed;" parent="nslEOduzyJcP9oeF_xEr-263" vertex="1">
          <mxGeometry x="6.5" y="6.5" width="27" height="27" as="geometry" />
        </mxCell>
        <mxCell id="nslEOduzyJcP9oeF_xEr-266" value="(SEMICOLON, ;)" style="text;html=1;align=center;verticalAlign=middle;resizable=0;points=[];autosize=1;strokeColor=none;fillColor=none;" parent="1" vertex="1">
          <mxGeometry x="758" y="665" width="110" height="30" as="geometry" />
        </mxCell>
        <mxCell id="nslEOduzyJcP9oeF_xEr-267" value="" style="endArrow=classic;html=1;rounded=0;entryX=0;entryY=0.5;entryDx=0;entryDy=0;jumpStyle=none;" parent="1" target="nslEOduzyJcP9oeF_xEr-264" edge="1">
          <mxGeometry width="50" height="50" relative="1" as="geometry">
            <mxPoint x="510" y="680" as="sourcePoint" />
            <mxPoint x="730" y="760" as="targetPoint" />
          </mxGeometry>
        </mxCell>
        <mxCell id="nslEOduzyJcP9oeF_xEr-269" value="\n" style="text;html=1;align=center;verticalAlign=middle;resizable=0;points=[];autosize=1;strokeColor=none;fillColor=none;fontSize=12;" parent="1" vertex="1">
          <mxGeometry x="550" y="650" width="30" height="30" as="geometry" />
        </mxCell>
        <mxCell id="nslEOduzyJcP9oeF_xEr-270" value="" style="endArrow=classic;html=1;rounded=0;entryX=0;entryY=0.5;entryDx=0;entryDy=0;jumpStyle=none;" parent="1" target="nslEOduzyJcP9oeF_xEr-72" edge="1">
          <mxGeometry width="50" height="50" relative="1" as="geometry">
            <mxPoint x="100" y="380" as="sourcePoint" />
            <mxPoint x="330" y="330" as="targetPoint" />
          </mxGeometry>
        </mxCell>
      </root>
    </mxGraphModel>
  </diagram>
  <diagram id="l78VkRc_w6d7mIwlx1nR" name="ДПС ==">
    <mxGraphModel dx="1434" dy="780" grid="1" gridSize="10" guides="1" tooltips="1" connect="1" arrows="1" fold="1" page="1" pageScale="1" pageWidth="827" pageHeight="1169" math="0" shadow="0">
      <root>
        <mxCell id="0" />
        <mxCell id="1" parent="0" />
        <mxCell id="GSJuzkEGVZJLwrEu7Tx7-1" style="edgeStyle=orthogonalEdgeStyle;rounded=0;orthogonalLoop=1;jettySize=auto;html=1;exitX=1;exitY=0.5;exitDx=0;exitDy=0;entryX=0;entryY=0.5;entryDx=0;entryDy=0;" parent="1" source="GSJuzkEGVZJLwrEu7Tx7-2" target="GSJuzkEGVZJLwrEu7Tx7-7" edge="1">
          <mxGeometry relative="1" as="geometry" />
        </mxCell>
        <mxCell id="GSJuzkEGVZJLwrEu7Tx7-2" value="0" style="ellipse;whiteSpace=wrap;html=1;aspect=fixed;" parent="1" vertex="1">
          <mxGeometry x="80" y="40" width="40" height="40" as="geometry" />
        </mxCell>
        <mxCell id="GSJuzkEGVZJLwrEu7Tx7-3" value="" style="endArrow=classic;html=1;rounded=0;entryX=0;entryY=0.5;entryDx=0;entryDy=0;" parent="1" target="GSJuzkEGVZJLwrEu7Tx7-2" edge="1">
          <mxGeometry width="50" height="50" relative="1" as="geometry">
            <mxPoint x="40" y="60" as="sourcePoint" />
            <mxPoint x="60" y="20" as="targetPoint" />
          </mxGeometry>
        </mxCell>
        <mxCell id="GSJuzkEGVZJLwrEu7Tx7-4" value="start" style="text;html=1;align=center;verticalAlign=middle;resizable=0;points=[];autosize=1;strokeColor=none;fillColor=none;" parent="1" vertex="1">
          <mxGeometry x="25" y="28" width="50" height="30" as="geometry" />
        </mxCell>
        <mxCell id="GSJuzkEGVZJLwrEu7Tx7-5" style="edgeStyle=orthogonalEdgeStyle;rounded=0;orthogonalLoop=1;jettySize=auto;html=1;exitX=1;exitY=0.5;exitDx=0;exitDy=0;entryX=0;entryY=0.5;entryDx=0;entryDy=0;" parent="1" source="GSJuzkEGVZJLwrEu7Tx7-7" target="GSJuzkEGVZJLwrEu7Tx7-10" edge="1">
          <mxGeometry relative="1" as="geometry" />
        </mxCell>
        <mxCell id="GSJuzkEGVZJLwrEu7Tx7-6" style="edgeStyle=orthogonalEdgeStyle;rounded=0;orthogonalLoop=1;jettySize=auto;html=1;exitX=0.5;exitY=1;exitDx=0;exitDy=0;entryX=0;entryY=0.5;entryDx=0;entryDy=0;" parent="1" source="GSJuzkEGVZJLwrEu7Tx7-7" target="GSJuzkEGVZJLwrEu7Tx7-15" edge="1">
          <mxGeometry relative="1" as="geometry" />
        </mxCell>
        <mxCell id="GSJuzkEGVZJLwrEu7Tx7-7" value="1" style="ellipse;whiteSpace=wrap;html=1;aspect=fixed;" parent="1" vertex="1">
          <mxGeometry x="200" y="40" width="40" height="40" as="geometry" />
        </mxCell>
        <mxCell id="GSJuzkEGVZJLwrEu7Tx7-8" value="=" style="text;html=1;align=center;verticalAlign=middle;resizable=0;points=[];autosize=1;strokeColor=none;fillColor=none;fontStyle=0;fontSize=18;" parent="1" vertex="1">
          <mxGeometry x="140" y="23" width="30" height="40" as="geometry" />
        </mxCell>
        <mxCell id="GSJuzkEGVZJLwrEu7Tx7-9" value="2" style="group" parent="1" vertex="1" connectable="0">
          <mxGeometry x="320" y="40" width="40" height="40" as="geometry" />
        </mxCell>
        <mxCell id="GSJuzkEGVZJLwrEu7Tx7-10" value="" style="ellipse;whiteSpace=wrap;html=1;aspect=fixed;" parent="GSJuzkEGVZJLwrEu7Tx7-9" vertex="1">
          <mxGeometry width="40" height="40" as="geometry" />
        </mxCell>
        <mxCell id="GSJuzkEGVZJLwrEu7Tx7-11" value="2" style="ellipse;whiteSpace=wrap;html=1;aspect=fixed;" parent="GSJuzkEGVZJLwrEu7Tx7-9" vertex="1">
          <mxGeometry x="6.5" y="6.5" width="27" height="27" as="geometry" />
        </mxCell>
        <mxCell id="GSJuzkEGVZJLwrEu7Tx7-12" value="=" style="text;html=1;align=center;verticalAlign=middle;resizable=0;points=[];autosize=1;strokeColor=none;fillColor=none;fontStyle=0;fontSize=18;" parent="1" vertex="1">
          <mxGeometry x="250" y="28" width="30" height="40" as="geometry" />
        </mxCell>
        <mxCell id="GSJuzkEGVZJLwrEu7Tx7-13" value="(EQ, &quot;==&quot;)" style="text;html=1;align=center;verticalAlign=middle;resizable=0;points=[];autosize=1;strokeColor=none;fillColor=none;" parent="1" vertex="1">
          <mxGeometry x="363" y="45" width="80" height="30" as="geometry" />
        </mxCell>
        <mxCell id="GSJuzkEGVZJLwrEu7Tx7-14" value="2" style="group" parent="1" vertex="1" connectable="0">
          <mxGeometry x="320" y="100" width="40" height="40" as="geometry" />
        </mxCell>
        <mxCell id="GSJuzkEGVZJLwrEu7Tx7-15" value="" style="ellipse;whiteSpace=wrap;html=1;aspect=fixed;" parent="GSJuzkEGVZJLwrEu7Tx7-14" vertex="1">
          <mxGeometry width="40" height="40" as="geometry" />
        </mxCell>
        <mxCell id="GSJuzkEGVZJLwrEu7Tx7-16" value="3" style="ellipse;whiteSpace=wrap;html=1;aspect=fixed;" parent="GSJuzkEGVZJLwrEu7Tx7-14" vertex="1">
          <mxGeometry x="6.5" y="6.5" width="27" height="27" as="geometry" />
        </mxCell>
        <mxCell id="GSJuzkEGVZJLwrEu7Tx7-17" value="(ASSIGN, &quot;=&quot;)" style="text;html=1;align=center;verticalAlign=middle;resizable=0;points=[];autosize=1;strokeColor=none;fillColor=none;" parent="1" vertex="1">
          <mxGeometry x="363" y="105" width="100" height="30" as="geometry" />
        </mxCell>
        <mxCell id="GSJuzkEGVZJLwrEu7Tx7-18" value="Other" style="text;html=1;align=center;verticalAlign=middle;resizable=0;points=[];autosize=1;strokeColor=none;fillColor=none;" parent="1" vertex="1">
          <mxGeometry x="220" y="88" width="50" height="30" as="geometry" />
        </mxCell>
      </root>
    </mxGraphModel>
  </diagram>
  <diagram id="ByBBBsJMFoM1C4kBVb8g" name="ДПС INT">
    <mxGraphModel dx="1434" dy="780" grid="1" gridSize="10" guides="1" tooltips="1" connect="1" arrows="1" fold="1" page="1" pageScale="1" pageWidth="827" pageHeight="1169" math="0" shadow="0">
      <root>
        <mxCell id="0" />
        <mxCell id="1" parent="0" />
        <mxCell id="PA6E50ZhDPNPUbUkj602-1" value="2" style="group" parent="1" vertex="1" connectable="0">
          <mxGeometry x="315" y="40" width="40" height="40" as="geometry" />
        </mxCell>
        <mxCell id="PA6E50ZhDPNPUbUkj602-2" value="" style="ellipse;whiteSpace=wrap;html=1;aspect=fixed;" parent="PA6E50ZhDPNPUbUkj602-1" vertex="1">
          <mxGeometry width="40" height="40" as="geometry" />
        </mxCell>
        <mxCell id="PA6E50ZhDPNPUbUkj602-3" value="40" style="ellipse;whiteSpace=wrap;html=1;aspect=fixed;" parent="PA6E50ZhDPNPUbUkj602-1" vertex="1">
          <mxGeometry x="6.5" y="6.5" width="27" height="27" as="geometry" />
        </mxCell>
        <mxCell id="PA6E50ZhDPNPUbUkj602-4" value="(INT, value)" style="text;html=1;align=center;verticalAlign=middle;resizable=0;points=[];autosize=1;strokeColor=none;fillColor=none;" parent="1" vertex="1">
          <mxGeometry x="363" y="45" width="80" height="30" as="geometry" />
        </mxCell>
        <mxCell id="PA6E50ZhDPNPUbUkj602-5" value="digit" style="text;html=1;align=center;verticalAlign=middle;resizable=0;points=[];autosize=1;strokeColor=none;fillColor=none;fontStyle=0;fontSize=12;" parent="1" vertex="1">
          <mxGeometry x="130" y="30" width="50" height="30" as="geometry" />
        </mxCell>
        <mxCell id="PA6E50ZhDPNPUbUkj602-6" style="edgeStyle=orthogonalEdgeStyle;rounded=0;orthogonalLoop=1;jettySize=auto;html=1;exitX=1;exitY=1;exitDx=0;exitDy=0;curved=1;entryX=0;entryY=1;entryDx=0;entryDy=0;" parent="1" source="PA6E50ZhDPNPUbUkj602-7" target="PA6E50ZhDPNPUbUkj602-7" edge="1">
          <mxGeometry relative="1" as="geometry">
            <mxPoint x="205" y="140" as="targetPoint" />
            <Array as="points">
              <mxPoint x="229" y="100" />
              <mxPoint x="201" y="100" />
            </Array>
          </mxGeometry>
        </mxCell>
        <mxCell id="PA6E50ZhDPNPUbUkj602-7" value="39" style="ellipse;whiteSpace=wrap;html=1;aspect=fixed;" parent="1" vertex="1">
          <mxGeometry x="195" y="40" width="40" height="40" as="geometry" />
        </mxCell>
        <mxCell id="PA6E50ZhDPNPUbUkj602-8" value="digit" style="text;html=1;align=center;verticalAlign=middle;resizable=0;points=[];autosize=1;strokeColor=none;fillColor=none;" parent="1" vertex="1">
          <mxGeometry x="190" y="100" width="50" height="30" as="geometry" />
        </mxCell>
        <mxCell id="PA6E50ZhDPNPUbUkj602-9" style="edgeStyle=orthogonalEdgeStyle;rounded=0;orthogonalLoop=1;jettySize=auto;html=1;exitX=1;exitY=0.5;exitDx=0;exitDy=0;entryX=0;entryY=0.5;entryDx=0;entryDy=0;" parent="1" source="PA6E50ZhDPNPUbUkj602-7" target="PA6E50ZhDPNPUbUkj602-2" edge="1">
          <mxGeometry relative="1" as="geometry" />
        </mxCell>
        <mxCell id="PA6E50ZhDPNPUbUkj602-10" value="not digit" style="text;html=1;align=center;verticalAlign=middle;resizable=0;points=[];autosize=1;strokeColor=none;fillColor=none;fontStyle=0;fontSize=12;" parent="1" vertex="1">
          <mxGeometry x="235" y="30" width="70" height="30" as="geometry" />
        </mxCell>
        <mxCell id="e71Vhl4WX3GGUzvRto3A-4" style="edgeStyle=orthogonalEdgeStyle;rounded=0;orthogonalLoop=1;jettySize=auto;html=1;exitX=1;exitY=0.5;exitDx=0;exitDy=0;entryX=0;entryY=0.5;entryDx=0;entryDy=0;" parent="1" source="e71Vhl4WX3GGUzvRto3A-1" target="PA6E50ZhDPNPUbUkj602-7" edge="1">
          <mxGeometry relative="1" as="geometry" />
        </mxCell>
        <mxCell id="e71Vhl4WX3GGUzvRto3A-1" value="0" style="ellipse;whiteSpace=wrap;html=1;aspect=fixed;" parent="1" vertex="1">
          <mxGeometry x="80" y="40" width="40" height="40" as="geometry" />
        </mxCell>
        <mxCell id="e71Vhl4WX3GGUzvRto3A-2" value="" style="endArrow=classic;html=1;rounded=0;entryX=0;entryY=0.5;entryDx=0;entryDy=0;" parent="1" target="e71Vhl4WX3GGUzvRto3A-1" edge="1">
          <mxGeometry width="50" height="50" relative="1" as="geometry">
            <mxPoint x="40" y="60" as="sourcePoint" />
            <mxPoint x="60" y="20" as="targetPoint" />
          </mxGeometry>
        </mxCell>
        <mxCell id="e71Vhl4WX3GGUzvRto3A-3" value="start" style="text;html=1;align=center;verticalAlign=middle;resizable=0;points=[];autosize=1;strokeColor=none;fillColor=none;" parent="1" vertex="1">
          <mxGeometry x="25" y="28" width="50" height="30" as="geometry" />
        </mxCell>
      </root>
    </mxGraphModel>
  </diagram>
  <diagram id="2sUcDaX-g1nbrNuBiUr1" name="ДПС IDENT KW">
    <mxGraphModel dx="1434" dy="780" grid="1" gridSize="10" guides="1" tooltips="1" connect="1" arrows="1" fold="1" page="1" pageScale="1" pageWidth="827" pageHeight="1169" math="0" shadow="0">
      <root>
        <mxCell id="0" />
        <mxCell id="1" parent="0" />
        <mxCell id="vrKh7Qo3OtWuoJLijnvT-1" value="2" style="group" parent="1" vertex="1" connectable="0">
          <mxGeometry x="441" y="40" width="40" height="40" as="geometry" />
        </mxCell>
        <mxCell id="vrKh7Qo3OtWuoJLijnvT-2" value="" style="ellipse;whiteSpace=wrap;html=1;aspect=fixed;" parent="vrKh7Qo3OtWuoJLijnvT-1" vertex="1">
          <mxGeometry width="40" height="40" as="geometry" />
        </mxCell>
        <mxCell id="vrKh7Qo3OtWuoJLijnvT-3" value="37" style="ellipse;whiteSpace=wrap;html=1;aspect=fixed;" parent="vrKh7Qo3OtWuoJLijnvT-1" vertex="1">
          <mxGeometry x="6.5" y="6.5" width="27" height="27" as="geometry" />
        </mxCell>
        <mxCell id="vrKh7Qo3OtWuoJLijnvT-4" value="(keyword, value)" style="text;html=1;align=center;verticalAlign=middle;resizable=0;points=[];autosize=1;strokeColor=none;fillColor=none;" parent="1" vertex="1">
          <mxGeometry x="481" y="45" width="110" height="30" as="geometry" />
        </mxCell>
        <mxCell id="vrKh7Qo3OtWuoJLijnvT-5" value="letter" style="text;html=1;align=center;verticalAlign=middle;resizable=0;points=[];autosize=1;strokeColor=none;fillColor=none;fontStyle=0;fontSize=12;" parent="1" vertex="1">
          <mxGeometry x="135" y="30" width="50" height="30" as="geometry" />
        </mxCell>
        <mxCell id="vrKh7Qo3OtWuoJLijnvT-6" style="edgeStyle=orthogonalEdgeStyle;rounded=0;orthogonalLoop=1;jettySize=auto;html=1;exitX=1;exitY=1;exitDx=0;exitDy=0;curved=1;entryX=0;entryY=1;entryDx=0;entryDy=0;" parent="1" source="vrKh7Qo3OtWuoJLijnvT-7" target="vrKh7Qo3OtWuoJLijnvT-7" edge="1">
          <mxGeometry relative="1" as="geometry">
            <mxPoint x="210" y="140" as="targetPoint" />
            <Array as="points">
              <mxPoint x="234" y="100" />
              <mxPoint x="206" y="100" />
            </Array>
          </mxGeometry>
        </mxCell>
        <mxCell id="vrKh7Qo3OtWuoJLijnvT-7" value="35" style="ellipse;whiteSpace=wrap;html=1;aspect=fixed;" parent="1" vertex="1">
          <mxGeometry x="200" y="40" width="40" height="40" as="geometry" />
        </mxCell>
        <mxCell id="vrKh7Qo3OtWuoJLijnvT-8" value="letter" style="text;html=1;align=center;verticalAlign=middle;resizable=0;points=[];autosize=1;strokeColor=none;fillColor=none;" parent="1" vertex="1">
          <mxGeometry x="195" y="100" width="50" height="30" as="geometry" />
        </mxCell>
        <mxCell id="vrKh7Qo3OtWuoJLijnvT-9" style="edgeStyle=orthogonalEdgeStyle;rounded=0;orthogonalLoop=1;jettySize=auto;html=1;exitX=1;exitY=0.5;exitDx=0;exitDy=0;entryX=0;entryY=0.5;entryDx=0;entryDy=0;" parent="1" source="vrKh7Qo3OtWuoJLijnvT-7" target="vrKh7Qo3OtWuoJLijnvT-13" edge="1">
          <mxGeometry relative="1" as="geometry" />
        </mxCell>
        <mxCell id="vrKh7Qo3OtWuoJLijnvT-10" value="" style="endArrow=classic;html=1;rounded=0;entryX=0;entryY=0.5;entryDx=0;entryDy=0;jumpStyle=none;exitX=1;exitY=0.5;exitDx=0;exitDy=0;" parent="1" source="SNXyb6uoHtumKQ_RAPYn-1" target="vrKh7Qo3OtWuoJLijnvT-7" edge="1">
          <mxGeometry width="50" height="50" relative="1" as="geometry">
            <mxPoint x="110" y="60" as="sourcePoint" />
            <mxPoint x="190" y="79.44" as="targetPoint" />
          </mxGeometry>
        </mxCell>
        <mxCell id="vrKh7Qo3OtWuoJLijnvT-11" style="edgeStyle=orthogonalEdgeStyle;rounded=0;orthogonalLoop=1;jettySize=auto;html=1;exitX=1;exitY=0.5;exitDx=0;exitDy=0;entryX=0;entryY=0.5;entryDx=0;entryDy=0;" parent="1" source="vrKh7Qo3OtWuoJLijnvT-13" target="vrKh7Qo3OtWuoJLijnvT-2" edge="1">
          <mxGeometry relative="1" as="geometry">
            <mxPoint x="430" y="40" as="targetPoint" />
          </mxGeometry>
        </mxCell>
        <mxCell id="vrKh7Qo3OtWuoJLijnvT-12" style="edgeStyle=orthogonalEdgeStyle;rounded=0;orthogonalLoop=1;jettySize=auto;html=1;exitX=0.5;exitY=1;exitDx=0;exitDy=0;entryX=0;entryY=0.5;entryDx=0;entryDy=0;" parent="1" source="vrKh7Qo3OtWuoJLijnvT-13" target="vrKh7Qo3OtWuoJLijnvT-17" edge="1">
          <mxGeometry relative="1" as="geometry" />
        </mxCell>
        <mxCell id="vrKh7Qo3OtWuoJLijnvT-13" value="36" style="ellipse;whiteSpace=wrap;html=1;aspect=fixed;" parent="1" vertex="1">
          <mxGeometry x="323" y="40" width="40" height="40" as="geometry" />
        </mxCell>
        <mxCell id="vrKh7Qo3OtWuoJLijnvT-14" value="not letter" style="text;html=1;align=center;verticalAlign=middle;resizable=0;points=[];autosize=1;strokeColor=none;fillColor=none;" parent="1" vertex="1">
          <mxGeometry x="245" y="30" width="70" height="30" as="geometry" />
        </mxCell>
        <mxCell id="vrKh7Qo3OtWuoJLijnvT-15" value="value is&lt;br&gt;keyword" style="text;html=1;align=center;verticalAlign=middle;resizable=0;points=[];autosize=1;strokeColor=none;fillColor=none;" parent="1" vertex="1">
          <mxGeometry x="363" y="20" width="70" height="40" as="geometry" />
        </mxCell>
        <mxCell id="vrKh7Qo3OtWuoJLijnvT-16" value="2" style="group" parent="1" vertex="1" connectable="0">
          <mxGeometry x="441" y="90" width="40" height="40" as="geometry" />
        </mxCell>
        <mxCell id="vrKh7Qo3OtWuoJLijnvT-17" value="" style="ellipse;whiteSpace=wrap;html=1;aspect=fixed;" parent="vrKh7Qo3OtWuoJLijnvT-16" vertex="1">
          <mxGeometry width="40" height="40" as="geometry" />
        </mxCell>
        <mxCell id="vrKh7Qo3OtWuoJLijnvT-18" value="38" style="ellipse;whiteSpace=wrap;html=1;aspect=fixed;" parent="vrKh7Qo3OtWuoJLijnvT-16" vertex="1">
          <mxGeometry x="6.5" y="6.5" width="27" height="27" as="geometry" />
        </mxCell>
        <mxCell id="vrKh7Qo3OtWuoJLijnvT-19" value="(IDENT, value)" style="text;html=1;align=center;verticalAlign=middle;resizable=0;points=[];autosize=1;strokeColor=none;fillColor=none;" parent="1" vertex="1">
          <mxGeometry x="486" y="95" width="100" height="30" as="geometry" />
        </mxCell>
        <mxCell id="vrKh7Qo3OtWuoJLijnvT-20" value="value is&lt;br&gt;not keyword" style="text;html=1;align=center;verticalAlign=middle;resizable=0;points=[];autosize=1;strokeColor=none;fillColor=none;" parent="1" vertex="1">
          <mxGeometry x="351" y="70" width="90" height="40" as="geometry" />
        </mxCell>
        <mxCell id="SNXyb6uoHtumKQ_RAPYn-1" value="0" style="ellipse;whiteSpace=wrap;html=1;aspect=fixed;" parent="1" vertex="1">
          <mxGeometry x="80" y="40" width="40" height="40" as="geometry" />
        </mxCell>
        <mxCell id="SNXyb6uoHtumKQ_RAPYn-2" value="" style="endArrow=classic;html=1;rounded=0;entryX=0;entryY=0.5;entryDx=0;entryDy=0;" parent="1" target="SNXyb6uoHtumKQ_RAPYn-1" edge="1">
          <mxGeometry width="50" height="50" relative="1" as="geometry">
            <mxPoint x="40" y="60" as="sourcePoint" />
            <mxPoint x="60" y="20" as="targetPoint" />
          </mxGeometry>
        </mxCell>
        <mxCell id="SNXyb6uoHtumKQ_RAPYn-3" value="start" style="text;html=1;align=center;verticalAlign=middle;resizable=0;points=[];autosize=1;strokeColor=none;fillColor=none;" parent="1" vertex="1">
          <mxGeometry x="25" y="28" width="50" height="30" as="geometry" />
        </mxCell>
      </root>
    </mxGraphModel>
  </diagram>
  <diagram id="gd4_Q2nYZLZdu0Ws5VTi" name="Приоритеты">
    <mxGraphModel dx="1434" dy="780" grid="1" gridSize="10" guides="1" tooltips="1" connect="1" arrows="1" fold="1" page="1" pageScale="1" pageWidth="827" pageHeight="1169" math="0" shadow="0">
      <root>
        <mxCell id="0" />
        <mxCell id="1" parent="0" />
        <mxCell id="pc_Q43WsxjXqOf2rl1s8-1" value="3" style="whiteSpace=wrap;html=1;aspect=fixed;fontSize=16;" parent="1" vertex="1">
          <mxGeometry x="120" y="80" width="40" height="40" as="geometry" />
        </mxCell>
        <mxCell id="pc_Q43WsxjXqOf2rl1s8-2" value="+" style="whiteSpace=wrap;html=1;aspect=fixed;fontSize=16;" parent="1" vertex="1">
          <mxGeometry x="160" y="80" width="40" height="40" as="geometry" />
        </mxCell>
        <mxCell id="pc_Q43WsxjXqOf2rl1s8-3" value="1" style="whiteSpace=wrap;html=1;aspect=fixed;fontSize=16;" parent="1" vertex="1">
          <mxGeometry x="200" y="80" width="40" height="40" as="geometry" />
        </mxCell>
        <mxCell id="pc_Q43WsxjXqOf2rl1s8-4" value="*" style="whiteSpace=wrap;html=1;aspect=fixed;fontSize=16;" parent="1" vertex="1">
          <mxGeometry x="240" y="80" width="40" height="40" as="geometry" />
        </mxCell>
        <mxCell id="pc_Q43WsxjXqOf2rl1s8-5" value="4" style="whiteSpace=wrap;html=1;aspect=fixed;fontSize=16;" parent="1" vertex="1">
          <mxGeometry x="280" y="80" width="40" height="40" as="geometry" />
        </mxCell>
        <mxCell id="pc_Q43WsxjXqOf2rl1s8-6" value="*" style="whiteSpace=wrap;html=1;aspect=fixed;fontSize=16;" parent="1" vertex="1">
          <mxGeometry x="320" y="80" width="40" height="40" as="geometry" />
        </mxCell>
        <mxCell id="pc_Q43WsxjXqOf2rl1s8-7" value="6" style="whiteSpace=wrap;html=1;aspect=fixed;fontSize=16;" parent="1" vertex="1">
          <mxGeometry x="360" y="80" width="40" height="40" as="geometry" />
        </mxCell>
        <mxCell id="pc_Q43WsxjXqOf2rl1s8-8" value="+" style="whiteSpace=wrap;html=1;aspect=fixed;fontSize=16;" parent="1" vertex="1">
          <mxGeometry x="400" y="80" width="40" height="40" as="geometry" />
        </mxCell>
        <mxCell id="pc_Q43WsxjXqOf2rl1s8-9" value="8" style="whiteSpace=wrap;html=1;aspect=fixed;fontSize=16;" parent="1" vertex="1">
          <mxGeometry x="440" y="80" width="40" height="40" as="geometry" />
        </mxCell>
        <mxCell id="pc_Q43WsxjXqOf2rl1s8-10" value="" style="endArrow=none;dashed=1;html=1;rounded=0;entryX=0;entryY=1;entryDx=0;entryDy=0;" parent="1" target="pc_Q43WsxjXqOf2rl1s8-1" edge="1">
          <mxGeometry width="50" height="50" relative="1" as="geometry">
            <mxPoint x="120" y="280" as="sourcePoint" />
            <mxPoint x="300" y="210" as="targetPoint" />
          </mxGeometry>
        </mxCell>
        <mxCell id="pc_Q43WsxjXqOf2rl1s8-11" value="" style="endArrow=none;dashed=1;html=1;rounded=0;entryX=0;entryY=1;entryDx=0;entryDy=0;" parent="1" target="pc_Q43WsxjXqOf2rl1s8-2" edge="1">
          <mxGeometry width="50" height="50" relative="1" as="geometry">
            <mxPoint x="160" y="280" as="sourcePoint" />
            <mxPoint x="130" y="130" as="targetPoint" />
          </mxGeometry>
        </mxCell>
        <mxCell id="pc_Q43WsxjXqOf2rl1s8-12" value="" style="endArrow=none;dashed=1;html=1;rounded=0;entryX=0;entryY=1;entryDx=0;entryDy=0;" parent="1" target="pc_Q43WsxjXqOf2rl1s8-3" edge="1">
          <mxGeometry width="50" height="50" relative="1" as="geometry">
            <mxPoint x="200" y="280" as="sourcePoint" />
            <mxPoint x="170" y="130" as="targetPoint" />
          </mxGeometry>
        </mxCell>
        <mxCell id="pc_Q43WsxjXqOf2rl1s8-13" value="" style="endArrow=none;dashed=1;html=1;rounded=0;entryX=0;entryY=1;entryDx=0;entryDy=0;" parent="1" target="pc_Q43WsxjXqOf2rl1s8-4" edge="1">
          <mxGeometry width="50" height="50" relative="1" as="geometry">
            <mxPoint x="240" y="280" as="sourcePoint" />
            <mxPoint x="210" y="130" as="targetPoint" />
          </mxGeometry>
        </mxCell>
        <mxCell id="pc_Q43WsxjXqOf2rl1s8-14" value="" style="endArrow=none;dashed=1;html=1;rounded=0;entryX=0;entryY=1;entryDx=0;entryDy=0;" parent="1" target="pc_Q43WsxjXqOf2rl1s8-5" edge="1">
          <mxGeometry width="50" height="50" relative="1" as="geometry">
            <mxPoint x="280" y="280" as="sourcePoint" />
            <mxPoint x="250" y="130" as="targetPoint" />
          </mxGeometry>
        </mxCell>
        <mxCell id="pc_Q43WsxjXqOf2rl1s8-15" value="" style="endArrow=none;dashed=1;html=1;rounded=0;entryX=0;entryY=1;entryDx=0;entryDy=0;" parent="1" target="pc_Q43WsxjXqOf2rl1s8-6" edge="1">
          <mxGeometry width="50" height="50" relative="1" as="geometry">
            <mxPoint x="320" y="280" as="sourcePoint" />
            <mxPoint x="290" y="130" as="targetPoint" />
          </mxGeometry>
        </mxCell>
        <mxCell id="pc_Q43WsxjXqOf2rl1s8-16" value="" style="endArrow=none;dashed=1;html=1;rounded=0;entryX=0;entryY=1;entryDx=0;entryDy=0;" parent="1" target="pc_Q43WsxjXqOf2rl1s8-7" edge="1">
          <mxGeometry width="50" height="50" relative="1" as="geometry">
            <mxPoint x="360" y="280" as="sourcePoint" />
            <mxPoint x="330" y="130" as="targetPoint" />
          </mxGeometry>
        </mxCell>
        <mxCell id="pc_Q43WsxjXqOf2rl1s8-17" value="" style="endArrow=none;dashed=1;html=1;rounded=0;entryX=0;entryY=1;entryDx=0;entryDy=0;" parent="1" target="pc_Q43WsxjXqOf2rl1s8-8" edge="1">
          <mxGeometry width="50" height="50" relative="1" as="geometry">
            <mxPoint x="400" y="280" as="sourcePoint" />
            <mxPoint x="370" y="130" as="targetPoint" />
          </mxGeometry>
        </mxCell>
        <mxCell id="pc_Q43WsxjXqOf2rl1s8-18" value="" style="endArrow=none;dashed=1;html=1;rounded=0;entryX=0;entryY=1;entryDx=0;entryDy=0;" parent="1" target="pc_Q43WsxjXqOf2rl1s8-9" edge="1">
          <mxGeometry width="50" height="50" relative="1" as="geometry">
            <mxPoint x="440" y="280" as="sourcePoint" />
            <mxPoint x="410" y="130" as="targetPoint" />
          </mxGeometry>
        </mxCell>
        <mxCell id="pc_Q43WsxjXqOf2rl1s8-19" value="" style="endArrow=none;dashed=1;html=1;rounded=0;entryX=1;entryY=1;entryDx=0;entryDy=0;" parent="1" target="pc_Q43WsxjXqOf2rl1s8-9" edge="1">
          <mxGeometry width="50" height="50" relative="1" as="geometry">
            <mxPoint x="480" y="280" as="sourcePoint" />
            <mxPoint x="450" y="130" as="targetPoint" />
          </mxGeometry>
        </mxCell>
        <mxCell id="pc_Q43WsxjXqOf2rl1s8-20" value="0" style="endArrow=classic;html=1;rounded=0;startArrow=baseDash;startFill=0;startSize=10;strokeWidth=1;fontSize=14;" parent="1" edge="1">
          <mxGeometry y="10" width="50" height="50" relative="1" as="geometry">
            <mxPoint x="120" y="160" as="sourcePoint" />
            <mxPoint x="480" y="160" as="targetPoint" />
            <mxPoint as="offset" />
          </mxGeometry>
        </mxCell>
        <mxCell id="pc_Q43WsxjXqOf2rl1s8-21" value="6" style="endArrow=classic;html=1;rounded=0;startArrow=baseDash;startFill=0;startSize=10;strokeWidth=1;fontSize=14;" parent="1" edge="1">
          <mxGeometry y="10" width="50" height="50" relative="1" as="geometry">
            <mxPoint x="200" y="200" as="sourcePoint" />
            <mxPoint x="400" y="200" as="targetPoint" />
            <mxPoint as="offset" />
          </mxGeometry>
        </mxCell>
        <mxCell id="pc_Q43WsxjXqOf2rl1s8-22" value="6" style="endArrow=classic;html=1;rounded=0;startArrow=baseDash;startFill=0;startSize=10;strokeWidth=1;fontSize=14;" parent="1" edge="1">
          <mxGeometry y="10" width="50" height="50" relative="1" as="geometry">
            <mxPoint x="440" y="200" as="sourcePoint" />
            <mxPoint x="480" y="200" as="targetPoint" />
            <mxPoint as="offset" />
          </mxGeometry>
        </mxCell>
        <mxCell id="pc_Q43WsxjXqOf2rl1s8-23" value="7" style="endArrow=classic;html=1;rounded=0;startArrow=baseDash;startFill=0;startSize=10;strokeWidth=1;fontSize=14;" parent="1" edge="1">
          <mxGeometry y="10" width="50" height="50" relative="1" as="geometry">
            <mxPoint x="280" y="240" as="sourcePoint" />
            <mxPoint x="320" y="240" as="targetPoint" />
            <mxPoint as="offset" />
          </mxGeometry>
        </mxCell>
        <mxCell id="pc_Q43WsxjXqOf2rl1s8-24" value="7" style="endArrow=classic;html=1;rounded=0;startArrow=baseDash;startFill=0;startSize=10;strokeWidth=1;fontSize=14;" parent="1" edge="1">
          <mxGeometry y="10" width="50" height="50" relative="1" as="geometry">
            <mxPoint x="360" y="240" as="sourcePoint" />
            <mxPoint x="400" y="240" as="targetPoint" />
            <mxPoint as="offset" />
          </mxGeometry>
        </mxCell>
      </root>
    </mxGraphModel>
  </diagram>
  <diagram id="DpVbuw539Fhrw2bbewbv" name="Пример дерева">
    <mxGraphModel dx="1434" dy="780" grid="1" gridSize="10" guides="1" tooltips="1" connect="1" arrows="1" fold="1" page="1" pageScale="1" pageWidth="827" pageHeight="1169" math="0" shadow="0">
      <root>
        <mxCell id="0" />
        <mxCell id="1" parent="0" />
        <mxCell id="SHnOV6-CScWJGHzBS9xs-3" style="rounded=0;orthogonalLoop=1;jettySize=auto;html=1;exitX=1;exitY=1;exitDx=0;exitDy=0;entryX=0;entryY=0;entryDx=0;entryDy=0;" parent="1" source="gTsvXnJZmm34wr2toPHL-1" target="SHnOV6-CScWJGHzBS9xs-2" edge="1">
          <mxGeometry relative="1" as="geometry" />
        </mxCell>
        <mxCell id="SHnOV6-CScWJGHzBS9xs-5" style="rounded=0;orthogonalLoop=1;jettySize=auto;html=1;exitX=0;exitY=1;exitDx=0;exitDy=0;entryX=1;entryY=0;entryDx=0;entryDy=0;" parent="1" source="gTsvXnJZmm34wr2toPHL-1" target="SHnOV6-CScWJGHzBS9xs-4" edge="1">
          <mxGeometry relative="1" as="geometry" />
        </mxCell>
        <mxCell id="gTsvXnJZmm34wr2toPHL-1" value="+" style="ellipse;whiteSpace=wrap;html=1;aspect=fixed;fontSize=16;" parent="1" vertex="1">
          <mxGeometry x="400" y="80" width="40" height="40" as="geometry" />
        </mxCell>
        <mxCell id="SHnOV6-CScWJGHzBS9xs-2" value="8" style="ellipse;whiteSpace=wrap;html=1;aspect=fixed;fontSize=16;" parent="1" vertex="1">
          <mxGeometry x="520" y="160" width="40" height="40" as="geometry" />
        </mxCell>
        <mxCell id="49XoTngRe3Na3cyxoI_9-1" style="rounded=0;orthogonalLoop=1;jettySize=auto;html=1;exitX=0;exitY=1;exitDx=0;exitDy=0;entryX=1;entryY=0;entryDx=0;entryDy=0;" parent="1" source="SHnOV6-CScWJGHzBS9xs-4" target="SHnOV6-CScWJGHzBS9xs-6" edge="1">
          <mxGeometry relative="1" as="geometry" />
        </mxCell>
        <mxCell id="49XoTngRe3Na3cyxoI_9-3" style="rounded=0;orthogonalLoop=1;jettySize=auto;html=1;exitX=1;exitY=1;exitDx=0;exitDy=0;entryX=0;entryY=0;entryDx=0;entryDy=0;" parent="1" source="SHnOV6-CScWJGHzBS9xs-4" target="49XoTngRe3Na3cyxoI_9-2" edge="1">
          <mxGeometry relative="1" as="geometry">
            <mxPoint x="350" y="220" as="targetPoint" />
          </mxGeometry>
        </mxCell>
        <mxCell id="SHnOV6-CScWJGHzBS9xs-4" value="+" style="ellipse;whiteSpace=wrap;html=1;aspect=fixed;fontSize=16;" parent="1" vertex="1">
          <mxGeometry x="280" y="160" width="40" height="40" as="geometry" />
        </mxCell>
        <mxCell id="SHnOV6-CScWJGHzBS9xs-6" value="3" style="ellipse;whiteSpace=wrap;html=1;aspect=fixed;fontSize=16;" parent="1" vertex="1">
          <mxGeometry x="200" y="240" width="40" height="40" as="geometry" />
        </mxCell>
        <mxCell id="pcS3SS3Cn_LQWO4qk74D-2" style="rounded=0;orthogonalLoop=1;jettySize=auto;html=1;exitX=0;exitY=1;exitDx=0;exitDy=0;entryX=1;entryY=0;entryDx=0;entryDy=0;" parent="1" source="49XoTngRe3Na3cyxoI_9-2" target="pcS3SS3Cn_LQWO4qk74D-1" edge="1">
          <mxGeometry relative="1" as="geometry" />
        </mxCell>
        <mxCell id="2lwKkBrZDRCj7ZAvHf1Y-2" style="rounded=0;orthogonalLoop=1;jettySize=auto;html=1;exitX=1;exitY=1;exitDx=0;exitDy=0;entryX=0;entryY=0;entryDx=0;entryDy=0;" parent="1" source="49XoTngRe3Na3cyxoI_9-2" target="2lwKkBrZDRCj7ZAvHf1Y-1" edge="1">
          <mxGeometry relative="1" as="geometry" />
        </mxCell>
        <mxCell id="49XoTngRe3Na3cyxoI_9-2" value="*" style="ellipse;whiteSpace=wrap;html=1;aspect=fixed;fontSize=16;" parent="1" vertex="1">
          <mxGeometry x="360" y="240" width="40" height="40" as="geometry" />
        </mxCell>
        <mxCell id="pcS3SS3Cn_LQWO4qk74D-4" style="rounded=0;orthogonalLoop=1;jettySize=auto;html=1;exitX=0;exitY=1;exitDx=0;exitDy=0;entryX=1;entryY=0;entryDx=0;entryDy=0;" parent="1" source="pcS3SS3Cn_LQWO4qk74D-1" target="pcS3SS3Cn_LQWO4qk74D-3" edge="1">
          <mxGeometry relative="1" as="geometry" />
        </mxCell>
        <mxCell id="pcS3SS3Cn_LQWO4qk74D-6" style="rounded=0;orthogonalLoop=1;jettySize=auto;html=1;exitX=1;exitY=1;exitDx=0;exitDy=0;entryX=0;entryY=0;entryDx=0;entryDy=0;" parent="1" source="pcS3SS3Cn_LQWO4qk74D-1" target="pcS3SS3Cn_LQWO4qk74D-5" edge="1">
          <mxGeometry relative="1" as="geometry" />
        </mxCell>
        <mxCell id="pcS3SS3Cn_LQWO4qk74D-1" value="*" style="ellipse;whiteSpace=wrap;html=1;aspect=fixed;fontSize=16;" parent="1" vertex="1">
          <mxGeometry x="300" y="300" width="40" height="40" as="geometry" />
        </mxCell>
        <mxCell id="pcS3SS3Cn_LQWO4qk74D-3" value="1" style="ellipse;whiteSpace=wrap;html=1;aspect=fixed;fontSize=16;" parent="1" vertex="1">
          <mxGeometry x="240" y="360" width="40" height="40" as="geometry" />
        </mxCell>
        <mxCell id="pcS3SS3Cn_LQWO4qk74D-5" value="4" style="ellipse;whiteSpace=wrap;html=1;aspect=fixed;fontSize=16;" parent="1" vertex="1">
          <mxGeometry x="360" y="360" width="40" height="40" as="geometry" />
        </mxCell>
        <mxCell id="2lwKkBrZDRCj7ZAvHf1Y-1" value="6" style="ellipse;whiteSpace=wrap;html=1;aspect=fixed;fontSize=16;" parent="1" vertex="1">
          <mxGeometry x="420" y="300" width="40" height="40" as="geometry" />
        </mxCell>
      </root>
    </mxGraphModel>
  </diagram>
  <diagram id="bgtTlZfIV9nBH7zD9OUZ" name="AST программы">
    <mxGraphModel dx="989" dy="538" grid="1" gridSize="10" guides="1" tooltips="1" connect="1" arrows="1" fold="1" page="1" pageScale="1" pageWidth="827" pageHeight="1169" math="0" shadow="0">
      <root>
        <mxCell id="0" />
        <mxCell id="1" parent="0" />
        <mxCell id="z2i_F1OBFj9lHijhhZMo-1" style="rounded=0;orthogonalLoop=1;jettySize=auto;html=1;exitX=1;exitY=1;exitDx=0;exitDy=0;entryX=0;entryY=0;entryDx=0;entryDy=0;" edge="1" parent="1" source="z2i_F1OBFj9lHijhhZMo-3" target="z2i_F1OBFj9lHijhhZMo-4">
          <mxGeometry relative="1" as="geometry" />
        </mxCell>
        <mxCell id="z2i_F1OBFj9lHijhhZMo-2" style="rounded=0;orthogonalLoop=1;jettySize=auto;html=1;exitX=0;exitY=1;exitDx=0;exitDy=0;entryX=1;entryY=0;entryDx=0;entryDy=0;" edge="1" parent="1" source="z2i_F1OBFj9lHijhhZMo-3" target="z2i_F1OBFj9lHijhhZMo-7">
          <mxGeometry relative="1" as="geometry" />
        </mxCell>
        <mxCell id="z2i_F1OBFj9lHijhhZMo-3" value="+" style="ellipse;whiteSpace=wrap;html=1;aspect=fixed;fontSize=16;" vertex="1" parent="1">
          <mxGeometry x="400" y="80" width="40" height="40" as="geometry" />
        </mxCell>
        <mxCell id="z2i_F1OBFj9lHijhhZMo-19" style="rounded=0;orthogonalLoop=1;jettySize=auto;html=1;exitX=0;exitY=1;exitDx=0;exitDy=0;entryX=1;entryY=0;entryDx=0;entryDy=0;" edge="1" parent="1" source="z2i_F1OBFj9lHijhhZMo-4" target="z2i_F1OBFj9lHijhhZMo-18">
          <mxGeometry relative="1" as="geometry" />
        </mxCell>
        <mxCell id="z2i_F1OBFj9lHijhhZMo-25" style="rounded=0;orthogonalLoop=1;jettySize=auto;html=1;exitX=1;exitY=1;exitDx=0;exitDy=0;entryX=0;entryY=0;entryDx=0;entryDy=0;" edge="1" parent="1" source="z2i_F1OBFj9lHijhhZMo-4" target="z2i_F1OBFj9lHijhhZMo-24">
          <mxGeometry relative="1" as="geometry" />
        </mxCell>
        <mxCell id="z2i_F1OBFj9lHijhhZMo-4" value="/" style="ellipse;whiteSpace=wrap;html=1;aspect=fixed;fontSize=16;" vertex="1" parent="1">
          <mxGeometry x="520" y="160" width="40" height="40" as="geometry" />
        </mxCell>
        <mxCell id="z2i_F1OBFj9lHijhhZMo-7" value="5" style="ellipse;whiteSpace=wrap;html=1;aspect=fixed;fontSize=16;" vertex="1" parent="1">
          <mxGeometry x="280" y="160" width="40" height="40" as="geometry" />
        </mxCell>
        <mxCell id="z2i_F1OBFj9lHijhhZMo-21" style="rounded=0;orthogonalLoop=1;jettySize=auto;html=1;exitX=0;exitY=1;exitDx=0;exitDy=0;entryX=1;entryY=0;entryDx=0;entryDy=0;" edge="1" parent="1" source="z2i_F1OBFj9lHijhhZMo-18" target="z2i_F1OBFj9lHijhhZMo-20">
          <mxGeometry relative="1" as="geometry" />
        </mxCell>
        <mxCell id="z2i_F1OBFj9lHijhhZMo-23" style="rounded=0;orthogonalLoop=1;jettySize=auto;html=1;exitX=1;exitY=1;exitDx=0;exitDy=0;entryX=0;entryY=0;entryDx=0;entryDy=0;" edge="1" parent="1" source="z2i_F1OBFj9lHijhhZMo-18" target="z2i_F1OBFj9lHijhhZMo-22">
          <mxGeometry relative="1" as="geometry" />
        </mxCell>
        <mxCell id="z2i_F1OBFj9lHijhhZMo-18" value="*" style="ellipse;whiteSpace=wrap;html=1;aspect=fixed;fontSize=16;" vertex="1" parent="1">
          <mxGeometry x="400" y="240" width="40" height="40" as="geometry" />
        </mxCell>
        <mxCell id="z2i_F1OBFj9lHijhhZMo-20" value="1" style="ellipse;whiteSpace=wrap;html=1;aspect=fixed;fontSize=16;" vertex="1" parent="1">
          <mxGeometry x="340" y="320" width="40" height="40" as="geometry" />
        </mxCell>
        <mxCell id="z2i_F1OBFj9lHijhhZMo-22" value="2" style="ellipse;whiteSpace=wrap;html=1;aspect=fixed;fontSize=16;" vertex="1" parent="1">
          <mxGeometry x="460" y="320" width="40" height="40" as="geometry" />
        </mxCell>
        <mxCell id="z2i_F1OBFj9lHijhhZMo-27" style="rounded=0;orthogonalLoop=1;jettySize=auto;html=1;exitX=0;exitY=1;exitDx=0;exitDy=0;entryX=1;entryY=0;entryDx=0;entryDy=0;" edge="1" parent="1" source="z2i_F1OBFj9lHijhhZMo-24" target="z2i_F1OBFj9lHijhhZMo-26">
          <mxGeometry relative="1" as="geometry" />
        </mxCell>
        <mxCell id="z2i_F1OBFj9lHijhhZMo-29" style="rounded=0;orthogonalLoop=1;jettySize=auto;html=1;exitX=1;exitY=1;exitDx=0;exitDy=0;entryX=0;entryY=0;entryDx=0;entryDy=0;" edge="1" parent="1" source="z2i_F1OBFj9lHijhhZMo-24" target="z2i_F1OBFj9lHijhhZMo-28">
          <mxGeometry relative="1" as="geometry" />
        </mxCell>
        <mxCell id="z2i_F1OBFj9lHijhhZMo-24" value="+" style="ellipse;whiteSpace=wrap;html=1;aspect=fixed;fontSize=16;" vertex="1" parent="1">
          <mxGeometry x="600" y="240" width="40" height="40" as="geometry" />
        </mxCell>
        <mxCell id="z2i_F1OBFj9lHijhhZMo-26" value="4" style="ellipse;whiteSpace=wrap;html=1;aspect=fixed;fontSize=16;" vertex="1" parent="1">
          <mxGeometry x="540" y="320" width="40" height="40" as="geometry" />
        </mxCell>
        <mxCell id="z2i_F1OBFj9lHijhhZMo-28" value="9" style="ellipse;whiteSpace=wrap;html=1;aspect=fixed;fontSize=16;" vertex="1" parent="1">
          <mxGeometry x="660" y="320" width="40" height="40" as="geometry" />
        </mxCell>
      </root>
    </mxGraphModel>
  </diagram>
</mxfile>
